<mxfile host="app.diagrams.net" modified="2022-03-03T16:14:01.205Z" agent="5.0 (Macintosh; Intel Mac OS X 10_15_7) AppleWebKit/537.36 (KHTML, like Gecko) Chrome/98.0.4758.102 Safari/537.36 OPR/84.0.4316.21" etag="tAeGYDoJOA7FnlQX_JRD" version="16.6.5" type="github">
  <diagram id="nb9kIYQozij9vFDSIQST" name="ERD">
    <mxGraphModel dx="906" dy="2237" grid="1" gridSize="10" guides="1" tooltips="1" connect="1" arrows="1" fold="1" page="1" pageScale="1" pageWidth="1100" pageHeight="850" math="0" shadow="0">
      <root>
        <mxCell id="0" />
        <mxCell id="1" parent="0" />
        <mxCell id="T9H3h0vGYmCpL9f131RO-149" style="edgeStyle=orthogonalEdgeStyle;rounded=0;orthogonalLoop=1;jettySize=auto;html=1;entryX=0.546;entryY=1.014;entryDx=0;entryDy=0;entryPerimeter=0;startArrow=none;startFill=0;endArrow=none;endFill=0;startSize=15;endSize=6;targetPerimeterSpacing=0;" parent="1" source="eeljkvIZESEK8SBCMJx8-1" target="T9H3h0vGYmCpL9f131RO-126" edge="1">
          <mxGeometry relative="1" as="geometry" />
        </mxCell>
        <mxCell id="T9H3h0vGYmCpL9f131RO-152" value="0..*" style="edgeLabel;html=1;align=center;verticalAlign=middle;resizable=0;points=[];" parent="T9H3h0vGYmCpL9f131RO-149" vertex="1" connectable="0">
          <mxGeometry x="0.76" y="-1" relative="1" as="geometry">
            <mxPoint x="11" as="offset" />
          </mxGeometry>
        </mxCell>
        <mxCell id="eeljkvIZESEK8SBCMJx8-1" value="Product" style="shape=table;startSize=30;container=1;collapsible=1;childLayout=tableLayout;fixedRows=1;rowLines=0;fontStyle=1;align=center;resizeLast=1;" parent="1" vertex="1">
          <mxGeometry x="673.75" y="-560" width="155" height="340" as="geometry" />
        </mxCell>
        <mxCell id="eeljkvIZESEK8SBCMJx8-2" value="" style="shape=tableRow;horizontal=0;startSize=0;swimlaneHead=0;swimlaneBody=0;fillColor=none;collapsible=0;dropTarget=0;points=[[0,0.5],[1,0.5]];portConstraint=eastwest;top=0;left=0;right=0;bottom=1;" parent="eeljkvIZESEK8SBCMJx8-1" vertex="1">
          <mxGeometry y="30" width="155" height="30" as="geometry" />
        </mxCell>
        <mxCell id="eeljkvIZESEK8SBCMJx8-3" value="PK" style="shape=partialRectangle;connectable=0;fillColor=none;top=0;left=0;bottom=0;right=0;fontStyle=1;overflow=hidden;" parent="eeljkvIZESEK8SBCMJx8-2" vertex="1">
          <mxGeometry width="30" height="30" as="geometry">
            <mxRectangle width="30" height="30" as="alternateBounds" />
          </mxGeometry>
        </mxCell>
        <mxCell id="eeljkvIZESEK8SBCMJx8-4" value="productID" style="shape=partialRectangle;connectable=0;fillColor=none;top=0;left=0;bottom=0;right=0;align=left;spacingLeft=6;fontStyle=5;overflow=hidden;" parent="eeljkvIZESEK8SBCMJx8-2" vertex="1">
          <mxGeometry x="30" width="125" height="30" as="geometry">
            <mxRectangle width="125" height="30" as="alternateBounds" />
          </mxGeometry>
        </mxCell>
        <mxCell id="eeljkvIZESEK8SBCMJx8-5" value="" style="shape=tableRow;horizontal=0;startSize=0;swimlaneHead=0;swimlaneBody=0;fillColor=none;collapsible=0;dropTarget=0;points=[[0,0.5],[1,0.5]];portConstraint=eastwest;top=0;left=0;right=0;bottom=0;" parent="eeljkvIZESEK8SBCMJx8-1" vertex="1">
          <mxGeometry y="60" width="155" height="30" as="geometry" />
        </mxCell>
        <mxCell id="eeljkvIZESEK8SBCMJx8-6" value="" style="shape=partialRectangle;connectable=0;fillColor=none;top=0;left=0;bottom=0;right=0;editable=1;overflow=hidden;" parent="eeljkvIZESEK8SBCMJx8-5" vertex="1">
          <mxGeometry width="30" height="30" as="geometry">
            <mxRectangle width="30" height="30" as="alternateBounds" />
          </mxGeometry>
        </mxCell>
        <mxCell id="eeljkvIZESEK8SBCMJx8-7" value="productName" style="shape=partialRectangle;connectable=0;fillColor=none;top=0;left=0;bottom=0;right=0;align=left;spacingLeft=6;overflow=hidden;" parent="eeljkvIZESEK8SBCMJx8-5" vertex="1">
          <mxGeometry x="30" width="125" height="30" as="geometry">
            <mxRectangle width="125" height="30" as="alternateBounds" />
          </mxGeometry>
        </mxCell>
        <mxCell id="eeljkvIZESEK8SBCMJx8-8" value="" style="shape=tableRow;horizontal=0;startSize=0;swimlaneHead=0;swimlaneBody=0;fillColor=none;collapsible=0;dropTarget=0;points=[[0,0.5],[1,0.5]];portConstraint=eastwest;top=0;left=0;right=0;bottom=0;" parent="eeljkvIZESEK8SBCMJx8-1" vertex="1">
          <mxGeometry y="90" width="155" height="30" as="geometry" />
        </mxCell>
        <mxCell id="eeljkvIZESEK8SBCMJx8-9" value="" style="shape=partialRectangle;connectable=0;fillColor=none;top=0;left=0;bottom=0;right=0;editable=1;overflow=hidden;" parent="eeljkvIZESEK8SBCMJx8-8" vertex="1">
          <mxGeometry width="30" height="30" as="geometry">
            <mxRectangle width="30" height="30" as="alternateBounds" />
          </mxGeometry>
        </mxCell>
        <mxCell id="eeljkvIZESEK8SBCMJx8-10" value="productDescription" style="shape=partialRectangle;connectable=0;fillColor=none;top=0;left=0;bottom=0;right=0;align=left;spacingLeft=6;overflow=hidden;" parent="eeljkvIZESEK8SBCMJx8-8" vertex="1">
          <mxGeometry x="30" width="125" height="30" as="geometry">
            <mxRectangle width="125" height="30" as="alternateBounds" />
          </mxGeometry>
        </mxCell>
        <mxCell id="eeljkvIZESEK8SBCMJx8-14" style="shape=tableRow;horizontal=0;startSize=0;swimlaneHead=0;swimlaneBody=0;fillColor=none;collapsible=0;dropTarget=0;points=[[0,0.5],[1,0.5]];portConstraint=eastwest;top=0;left=0;right=0;bottom=0;" parent="eeljkvIZESEK8SBCMJx8-1" vertex="1">
          <mxGeometry y="120" width="155" height="30" as="geometry" />
        </mxCell>
        <mxCell id="eeljkvIZESEK8SBCMJx8-15" style="shape=partialRectangle;connectable=0;fillColor=none;top=0;left=0;bottom=0;right=0;editable=1;overflow=hidden;" parent="eeljkvIZESEK8SBCMJx8-14" vertex="1">
          <mxGeometry width="30" height="30" as="geometry">
            <mxRectangle width="30" height="30" as="alternateBounds" />
          </mxGeometry>
        </mxCell>
        <mxCell id="eeljkvIZESEK8SBCMJx8-16" value="productQuantity" style="shape=partialRectangle;connectable=0;fillColor=none;top=0;left=0;bottom=0;right=0;align=left;spacingLeft=6;overflow=hidden;" parent="eeljkvIZESEK8SBCMJx8-14" vertex="1">
          <mxGeometry x="30" width="125" height="30" as="geometry">
            <mxRectangle width="125" height="30" as="alternateBounds" />
          </mxGeometry>
        </mxCell>
        <mxCell id="eeljkvIZESEK8SBCMJx8-17" style="shape=tableRow;horizontal=0;startSize=0;swimlaneHead=0;swimlaneBody=0;fillColor=none;collapsible=0;dropTarget=0;points=[[0,0.5],[1,0.5]];portConstraint=eastwest;top=0;left=0;right=0;bottom=0;" parent="eeljkvIZESEK8SBCMJx8-1" vertex="1">
          <mxGeometry y="150" width="155" height="30" as="geometry" />
        </mxCell>
        <mxCell id="eeljkvIZESEK8SBCMJx8-18" style="shape=partialRectangle;connectable=0;fillColor=none;top=0;left=0;bottom=0;right=0;editable=1;overflow=hidden;" parent="eeljkvIZESEK8SBCMJx8-17" vertex="1">
          <mxGeometry width="30" height="30" as="geometry">
            <mxRectangle width="30" height="30" as="alternateBounds" />
          </mxGeometry>
        </mxCell>
        <mxCell id="eeljkvIZESEK8SBCMJx8-19" value="productPrice" style="shape=partialRectangle;connectable=0;fillColor=none;top=0;left=0;bottom=0;right=0;align=left;spacingLeft=6;overflow=hidden;" parent="eeljkvIZESEK8SBCMJx8-17" vertex="1">
          <mxGeometry x="30" width="125" height="30" as="geometry">
            <mxRectangle width="125" height="30" as="alternateBounds" />
          </mxGeometry>
        </mxCell>
        <mxCell id="eeljkvIZESEK8SBCMJx8-84" style="shape=tableRow;horizontal=0;startSize=0;swimlaneHead=0;swimlaneBody=0;fillColor=none;collapsible=0;dropTarget=0;points=[[0,0.5],[1,0.5]];portConstraint=eastwest;top=0;left=0;right=0;bottom=0;" parent="eeljkvIZESEK8SBCMJx8-1" vertex="1">
          <mxGeometry y="180" width="155" height="30" as="geometry" />
        </mxCell>
        <mxCell id="eeljkvIZESEK8SBCMJx8-85" style="shape=partialRectangle;connectable=0;fillColor=none;top=0;left=0;bottom=0;right=0;editable=1;overflow=hidden;" parent="eeljkvIZESEK8SBCMJx8-84" vertex="1">
          <mxGeometry width="30" height="30" as="geometry">
            <mxRectangle width="30" height="30" as="alternateBounds" />
          </mxGeometry>
        </mxCell>
        <mxCell id="eeljkvIZESEK8SBCMJx8-86" value="productSection" style="shape=partialRectangle;connectable=0;fillColor=none;top=0;left=0;bottom=0;right=0;align=left;spacingLeft=6;overflow=hidden;" parent="eeljkvIZESEK8SBCMJx8-84" vertex="1">
          <mxGeometry x="30" width="125" height="30" as="geometry">
            <mxRectangle width="125" height="30" as="alternateBounds" />
          </mxGeometry>
        </mxCell>
        <mxCell id="eeljkvIZESEK8SBCMJx8-87" style="shape=tableRow;horizontal=0;startSize=0;swimlaneHead=0;swimlaneBody=0;fillColor=none;collapsible=0;dropTarget=0;points=[[0,0.5],[1,0.5]];portConstraint=eastwest;top=0;left=0;right=0;bottom=0;" parent="eeljkvIZESEK8SBCMJx8-1" vertex="1">
          <mxGeometry y="210" width="155" height="30" as="geometry" />
        </mxCell>
        <mxCell id="eeljkvIZESEK8SBCMJx8-88" style="shape=partialRectangle;connectable=0;fillColor=none;top=0;left=0;bottom=0;right=0;editable=1;overflow=hidden;" parent="eeljkvIZESEK8SBCMJx8-87" vertex="1">
          <mxGeometry width="30" height="30" as="geometry">
            <mxRectangle width="30" height="30" as="alternateBounds" />
          </mxGeometry>
        </mxCell>
        <mxCell id="eeljkvIZESEK8SBCMJx8-89" value="productColor" style="shape=partialRectangle;connectable=0;fillColor=none;top=0;left=0;bottom=0;right=0;align=left;spacingLeft=6;overflow=hidden;" parent="eeljkvIZESEK8SBCMJx8-87" vertex="1">
          <mxGeometry x="30" width="125" height="30" as="geometry">
            <mxRectangle width="125" height="30" as="alternateBounds" />
          </mxGeometry>
        </mxCell>
        <mxCell id="T9H3h0vGYmCpL9f131RO-1" style="shape=tableRow;horizontal=0;startSize=0;swimlaneHead=0;swimlaneBody=0;fillColor=none;collapsible=0;dropTarget=0;points=[[0,0.5],[1,0.5]];portConstraint=eastwest;top=0;left=0;right=0;bottom=0;" parent="eeljkvIZESEK8SBCMJx8-1" vertex="1">
          <mxGeometry y="240" width="155" height="30" as="geometry" />
        </mxCell>
        <mxCell id="T9H3h0vGYmCpL9f131RO-2" style="shape=partialRectangle;connectable=0;fillColor=none;top=0;left=0;bottom=0;right=0;editable=1;overflow=hidden;" parent="T9H3h0vGYmCpL9f131RO-1" vertex="1">
          <mxGeometry width="30" height="30" as="geometry">
            <mxRectangle width="30" height="30" as="alternateBounds" />
          </mxGeometry>
        </mxCell>
        <mxCell id="T9H3h0vGYmCpL9f131RO-3" value="productCollection" style="shape=partialRectangle;connectable=0;fillColor=none;top=0;left=0;bottom=0;right=0;align=left;spacingLeft=6;overflow=hidden;" parent="T9H3h0vGYmCpL9f131RO-1" vertex="1">
          <mxGeometry x="30" width="125" height="30" as="geometry">
            <mxRectangle width="125" height="30" as="alternateBounds" />
          </mxGeometry>
        </mxCell>
        <mxCell id="T9H3h0vGYmCpL9f131RO-4" style="shape=tableRow;horizontal=0;startSize=0;swimlaneHead=0;swimlaneBody=0;fillColor=none;collapsible=0;dropTarget=0;points=[[0,0.5],[1,0.5]];portConstraint=eastwest;top=0;left=0;right=0;bottom=0;" parent="eeljkvIZESEK8SBCMJx8-1" vertex="1">
          <mxGeometry y="270" width="155" height="30" as="geometry" />
        </mxCell>
        <mxCell id="T9H3h0vGYmCpL9f131RO-5" style="shape=partialRectangle;connectable=0;fillColor=none;top=0;left=0;bottom=0;right=0;editable=1;overflow=hidden;" parent="T9H3h0vGYmCpL9f131RO-4" vertex="1">
          <mxGeometry width="30" height="30" as="geometry">
            <mxRectangle width="30" height="30" as="alternateBounds" />
          </mxGeometry>
        </mxCell>
        <mxCell id="T9H3h0vGYmCpL9f131RO-6" value="productCategory" style="shape=partialRectangle;connectable=0;fillColor=none;top=0;left=0;bottom=0;right=0;align=left;spacingLeft=6;overflow=hidden;" parent="T9H3h0vGYmCpL9f131RO-4" vertex="1">
          <mxGeometry x="30" width="125" height="30" as="geometry">
            <mxRectangle width="125" height="30" as="alternateBounds" />
          </mxGeometry>
        </mxCell>
        <mxCell id="DKZ6fmow9cFFJxBfwGVZ-2" style="shape=tableRow;horizontal=0;startSize=0;swimlaneHead=0;swimlaneBody=0;fillColor=none;collapsible=0;dropTarget=0;points=[[0,0.5],[1,0.5]];portConstraint=eastwest;top=0;left=0;right=0;bottom=0;" parent="eeljkvIZESEK8SBCMJx8-1" vertex="1">
          <mxGeometry y="300" width="155" height="30" as="geometry" />
        </mxCell>
        <mxCell id="DKZ6fmow9cFFJxBfwGVZ-3" style="shape=partialRectangle;connectable=0;fillColor=none;top=0;left=0;bottom=0;right=0;editable=1;overflow=hidden;" parent="DKZ6fmow9cFFJxBfwGVZ-2" vertex="1">
          <mxGeometry width="30" height="30" as="geometry">
            <mxRectangle width="30" height="30" as="alternateBounds" />
          </mxGeometry>
        </mxCell>
        <mxCell id="DKZ6fmow9cFFJxBfwGVZ-4" value="/unitSold" style="shape=partialRectangle;connectable=0;fillColor=none;top=0;left=0;bottom=0;right=0;align=left;spacingLeft=6;overflow=hidden;" parent="DKZ6fmow9cFFJxBfwGVZ-2" vertex="1">
          <mxGeometry x="30" width="125" height="30" as="geometry">
            <mxRectangle width="125" height="30" as="alternateBounds" />
          </mxGeometry>
        </mxCell>
        <mxCell id="eeljkvIZESEK8SBCMJx8-147" style="edgeStyle=orthogonalEdgeStyle;rounded=0;orthogonalLoop=1;jettySize=auto;html=1;endArrow=block;endFill=0;strokeWidth=1;startSize=6;endSize=17;" parent="1" source="eeljkvIZESEK8SBCMJx8-52" edge="1">
          <mxGeometry relative="1" as="geometry">
            <Array as="points">
              <mxPoint x="957" y="-140" />
              <mxPoint x="764" y="-140" />
            </Array>
            <mxPoint x="764" y="-220" as="targetPoint" />
          </mxGeometry>
        </mxCell>
        <mxCell id="eeljkvIZESEK8SBCMJx8-150" value="{Mandatory, Or}" style="edgeLabel;html=1;align=center;verticalAlign=middle;resizable=0;points=[];fontSize=16;" parent="eeljkvIZESEK8SBCMJx8-147" vertex="1" connectable="0">
          <mxGeometry x="-0.4222" y="-2" relative="1" as="geometry">
            <mxPoint x="-10" y="-12" as="offset" />
          </mxGeometry>
        </mxCell>
        <mxCell id="eeljkvIZESEK8SBCMJx8-52" value="Shoes" style="shape=table;startSize=30;container=1;collapsible=1;childLayout=tableLayout;fixedRows=1;rowLines=0;fontStyle=1;align=center;resizeLast=1;swimlaneLine=1;strokeColor=default;" parent="1" vertex="1">
          <mxGeometry x="886.25" y="-100.05" width="102.5" height="90" as="geometry" />
        </mxCell>
        <mxCell id="eeljkvIZESEK8SBCMJx8-56" value="" style="shape=tableRow;horizontal=0;startSize=0;swimlaneHead=0;swimlaneBody=0;fillColor=none;collapsible=0;dropTarget=0;points=[[0,0.5],[1,0.5]];portConstraint=eastwest;top=0;left=0;right=0;bottom=0;" parent="eeljkvIZESEK8SBCMJx8-52" vertex="1">
          <mxGeometry y="30" width="102.5" height="30" as="geometry" />
        </mxCell>
        <mxCell id="eeljkvIZESEK8SBCMJx8-57" value="" style="shape=partialRectangle;connectable=0;fillColor=none;top=0;left=0;bottom=0;right=0;editable=1;overflow=hidden;strokeWidth=1;strokeColor=default;" parent="eeljkvIZESEK8SBCMJx8-56" vertex="1">
          <mxGeometry width="20" height="30" as="geometry">
            <mxRectangle width="20" height="30" as="alternateBounds" />
          </mxGeometry>
        </mxCell>
        <mxCell id="eeljkvIZESEK8SBCMJx8-58" value="usSize" style="shape=partialRectangle;connectable=0;fillColor=none;top=0;left=0;bottom=0;right=0;align=left;spacingLeft=6;overflow=hidden;" parent="eeljkvIZESEK8SBCMJx8-56" vertex="1">
          <mxGeometry x="20" width="82.5" height="30" as="geometry">
            <mxRectangle width="82.5" height="30" as="alternateBounds" />
          </mxGeometry>
        </mxCell>
        <mxCell id="eeljkvIZESEK8SBCMJx8-59" value="" style="shape=tableRow;horizontal=0;startSize=0;swimlaneHead=0;swimlaneBody=0;fillColor=none;collapsible=0;dropTarget=0;points=[[0,0.5],[1,0.5]];portConstraint=eastwest;top=0;left=0;right=0;bottom=0;" parent="eeljkvIZESEK8SBCMJx8-52" vertex="1">
          <mxGeometry y="60" width="102.5" height="30" as="geometry" />
        </mxCell>
        <mxCell id="eeljkvIZESEK8SBCMJx8-60" value="" style="shape=partialRectangle;connectable=0;fillColor=none;top=0;left=0;bottom=0;right=0;editable=1;overflow=hidden;" parent="eeljkvIZESEK8SBCMJx8-59" vertex="1">
          <mxGeometry width="20" height="30" as="geometry">
            <mxRectangle width="20" height="30" as="alternateBounds" />
          </mxGeometry>
        </mxCell>
        <mxCell id="eeljkvIZESEK8SBCMJx8-61" value="euSize" style="shape=partialRectangle;connectable=0;fillColor=none;top=0;left=0;bottom=0;right=0;align=left;spacingLeft=6;overflow=hidden;" parent="eeljkvIZESEK8SBCMJx8-59" vertex="1">
          <mxGeometry x="20" width="82.5" height="30" as="geometry">
            <mxRectangle width="82.5" height="30" as="alternateBounds" />
          </mxGeometry>
        </mxCell>
        <mxCell id="eeljkvIZESEK8SBCMJx8-148" style="edgeStyle=orthogonalEdgeStyle;rounded=0;orthogonalLoop=1;jettySize=auto;html=1;endArrow=block;endFill=0;startSize=6;endSize=17;strokeWidth=1;" parent="1" source="eeljkvIZESEK8SBCMJx8-118" edge="1">
          <mxGeometry relative="1" as="geometry">
            <mxPoint x="764" y="-220" as="targetPoint" />
          </mxGeometry>
        </mxCell>
        <mxCell id="eeljkvIZESEK8SBCMJx8-118" value="Top" style="shape=table;startSize=30;container=1;collapsible=1;childLayout=tableLayout;fixedRows=1;rowLines=0;fontStyle=1;align=center;resizeLast=1;swimlaneLine=1;strokeColor=default;" parent="1" vertex="1">
          <mxGeometry x="696.25" y="-100.05" width="134.5" height="120" as="geometry" />
        </mxCell>
        <mxCell id="eeljkvIZESEK8SBCMJx8-119" value="" style="shape=tableRow;horizontal=0;startSize=0;swimlaneHead=0;swimlaneBody=0;fillColor=none;collapsible=0;dropTarget=0;points=[[0,0.5],[1,0.5]];portConstraint=eastwest;top=0;left=0;right=0;bottom=0;" parent="eeljkvIZESEK8SBCMJx8-118" vertex="1">
          <mxGeometry y="30" width="134.5" height="30" as="geometry" />
        </mxCell>
        <mxCell id="eeljkvIZESEK8SBCMJx8-120" value="" style="shape=partialRectangle;connectable=0;fillColor=none;top=0;left=0;bottom=0;right=0;editable=1;overflow=hidden;strokeWidth=1;strokeColor=default;" parent="eeljkvIZESEK8SBCMJx8-119" vertex="1">
          <mxGeometry width="20" height="30" as="geometry">
            <mxRectangle width="20" height="30" as="alternateBounds" />
          </mxGeometry>
        </mxCell>
        <mxCell id="eeljkvIZESEK8SBCMJx8-121" value="topFit" style="shape=partialRectangle;connectable=0;fillColor=none;top=0;left=0;bottom=0;right=0;align=left;spacingLeft=6;overflow=hidden;" parent="eeljkvIZESEK8SBCMJx8-119" vertex="1">
          <mxGeometry x="20" width="114.5" height="30" as="geometry">
            <mxRectangle width="114.5" height="30" as="alternateBounds" />
          </mxGeometry>
        </mxCell>
        <mxCell id="eeljkvIZESEK8SBCMJx8-125" style="shape=tableRow;horizontal=0;startSize=0;swimlaneHead=0;swimlaneBody=0;fillColor=none;collapsible=0;dropTarget=0;points=[[0,0.5],[1,0.5]];portConstraint=eastwest;top=0;left=0;right=0;bottom=0;" parent="eeljkvIZESEK8SBCMJx8-118" vertex="1">
          <mxGeometry y="60" width="134.5" height="30" as="geometry" />
        </mxCell>
        <mxCell id="eeljkvIZESEK8SBCMJx8-126" value="" style="shape=partialRectangle;connectable=0;fillColor=none;top=0;left=0;bottom=0;right=0;editable=1;overflow=hidden;" parent="eeljkvIZESEK8SBCMJx8-125" vertex="1">
          <mxGeometry width="20" height="30" as="geometry">
            <mxRectangle width="20" height="30" as="alternateBounds" />
          </mxGeometry>
        </mxCell>
        <mxCell id="eeljkvIZESEK8SBCMJx8-127" value="topSize" style="shape=partialRectangle;connectable=0;fillColor=none;top=0;left=0;bottom=0;right=0;align=left;spacingLeft=6;overflow=hidden;" parent="eeljkvIZESEK8SBCMJx8-125" vertex="1">
          <mxGeometry x="20" width="114.5" height="30" as="geometry">
            <mxRectangle width="114.5" height="30" as="alternateBounds" />
          </mxGeometry>
        </mxCell>
        <mxCell id="T9H3h0vGYmCpL9f131RO-7" style="shape=tableRow;horizontal=0;startSize=0;swimlaneHead=0;swimlaneBody=0;fillColor=none;collapsible=0;dropTarget=0;points=[[0,0.5],[1,0.5]];portConstraint=eastwest;top=0;left=0;right=0;bottom=0;" parent="eeljkvIZESEK8SBCMJx8-118" vertex="1">
          <mxGeometry y="90" width="134.5" height="30" as="geometry" />
        </mxCell>
        <mxCell id="T9H3h0vGYmCpL9f131RO-8" style="shape=partialRectangle;connectable=0;fillColor=none;top=0;left=0;bottom=0;right=0;editable=1;overflow=hidden;" parent="T9H3h0vGYmCpL9f131RO-7" vertex="1">
          <mxGeometry width="20" height="30" as="geometry">
            <mxRectangle width="20" height="30" as="alternateBounds" />
          </mxGeometry>
        </mxCell>
        <mxCell id="T9H3h0vGYmCpL9f131RO-9" value="topType" style="shape=partialRectangle;connectable=0;fillColor=none;top=0;left=0;bottom=0;right=0;align=left;spacingLeft=6;overflow=hidden;" parent="T9H3h0vGYmCpL9f131RO-7" vertex="1">
          <mxGeometry x="20" width="114.5" height="30" as="geometry">
            <mxRectangle width="114.5" height="30" as="alternateBounds" />
          </mxGeometry>
        </mxCell>
        <mxCell id="eeljkvIZESEK8SBCMJx8-149" style="edgeStyle=orthogonalEdgeStyle;rounded=0;orthogonalLoop=1;jettySize=auto;html=1;endArrow=block;endFill=0;startSize=6;endSize=17;strokeWidth=1;" parent="1" source="eeljkvIZESEK8SBCMJx8-131" edge="1">
          <mxGeometry relative="1" as="geometry">
            <mxPoint x="764" y="-220" as="targetPoint" />
            <Array as="points">
              <mxPoint x="571" y="-140" />
              <mxPoint x="764" y="-140" />
            </Array>
          </mxGeometry>
        </mxCell>
        <mxCell id="eeljkvIZESEK8SBCMJx8-131" value="Bottom" style="shape=table;startSize=30;container=1;collapsible=1;childLayout=tableLayout;fixedRows=1;rowLines=0;fontStyle=1;align=center;resizeLast=1;swimlaneLine=1;strokeColor=default;" parent="1" vertex="1">
          <mxGeometry x="501.25" y="-100.05" width="140" height="90" as="geometry" />
        </mxCell>
        <mxCell id="eeljkvIZESEK8SBCMJx8-132" value="" style="shape=tableRow;horizontal=0;startSize=0;swimlaneHead=0;swimlaneBody=0;fillColor=none;collapsible=0;dropTarget=0;points=[[0,0.5],[1,0.5]];portConstraint=eastwest;top=0;left=0;right=0;bottom=0;" parent="eeljkvIZESEK8SBCMJx8-131" vertex="1">
          <mxGeometry y="30" width="140" height="30" as="geometry" />
        </mxCell>
        <mxCell id="eeljkvIZESEK8SBCMJx8-133" value="" style="shape=partialRectangle;connectable=0;fillColor=none;top=0;left=0;bottom=0;right=0;editable=1;overflow=hidden;strokeWidth=1;strokeColor=default;" parent="eeljkvIZESEK8SBCMJx8-132" vertex="1">
          <mxGeometry width="20" height="30" as="geometry">
            <mxRectangle width="20" height="30" as="alternateBounds" />
          </mxGeometry>
        </mxCell>
        <mxCell id="eeljkvIZESEK8SBCMJx8-134" value="bottomFit" style="shape=partialRectangle;connectable=0;fillColor=none;top=0;left=0;bottom=0;right=0;align=left;spacingLeft=6;overflow=hidden;" parent="eeljkvIZESEK8SBCMJx8-132" vertex="1">
          <mxGeometry x="20" width="120" height="30" as="geometry">
            <mxRectangle width="120" height="30" as="alternateBounds" />
          </mxGeometry>
        </mxCell>
        <mxCell id="eeljkvIZESEK8SBCMJx8-135" value="" style="shape=tableRow;horizontal=0;startSize=0;swimlaneHead=0;swimlaneBody=0;fillColor=none;collapsible=0;dropTarget=0;points=[[0,0.5],[1,0.5]];portConstraint=eastwest;top=0;left=0;right=0;bottom=0;" parent="eeljkvIZESEK8SBCMJx8-131" vertex="1">
          <mxGeometry y="60" width="140" height="30" as="geometry" />
        </mxCell>
        <mxCell id="eeljkvIZESEK8SBCMJx8-136" value="" style="shape=partialRectangle;connectable=0;fillColor=none;top=0;left=0;bottom=0;right=0;editable=1;overflow=hidden;" parent="eeljkvIZESEK8SBCMJx8-135" vertex="1">
          <mxGeometry width="20" height="30" as="geometry">
            <mxRectangle width="20" height="30" as="alternateBounds" />
          </mxGeometry>
        </mxCell>
        <mxCell id="eeljkvIZESEK8SBCMJx8-137" value="bottomSize" style="shape=partialRectangle;connectable=0;fillColor=none;top=0;left=0;bottom=0;right=0;align=left;spacingLeft=6;overflow=hidden;" parent="eeljkvIZESEK8SBCMJx8-135" vertex="1">
          <mxGeometry x="20" width="120" height="30" as="geometry">
            <mxRectangle width="120" height="30" as="alternateBounds" />
          </mxGeometry>
        </mxCell>
        <mxCell id="T9H3h0vGYmCpL9f131RO-16" value="Customer" style="shape=table;startSize=30;container=1;collapsible=1;childLayout=tableLayout;fixedRows=1;rowLines=0;fontStyle=1;align=center;resizeLast=1;" parent="1" vertex="1">
          <mxGeometry x="80" y="-830" width="160" height="360" as="geometry" />
        </mxCell>
        <mxCell id="T9H3h0vGYmCpL9f131RO-17" value="" style="shape=tableRow;horizontal=0;startSize=0;swimlaneHead=0;swimlaneBody=0;fillColor=none;collapsible=0;dropTarget=0;points=[[0,0.5],[1,0.5]];portConstraint=eastwest;top=0;left=0;right=0;bottom=1;" parent="T9H3h0vGYmCpL9f131RO-16" vertex="1">
          <mxGeometry y="30" width="160" height="30" as="geometry" />
        </mxCell>
        <mxCell id="T9H3h0vGYmCpL9f131RO-18" value="PK" style="shape=partialRectangle;connectable=0;fillColor=none;top=0;left=0;bottom=0;right=0;fontStyle=1;overflow=hidden;" parent="T9H3h0vGYmCpL9f131RO-17" vertex="1">
          <mxGeometry width="30" height="30" as="geometry">
            <mxRectangle width="30" height="30" as="alternateBounds" />
          </mxGeometry>
        </mxCell>
        <mxCell id="T9H3h0vGYmCpL9f131RO-19" value="customerID" style="shape=partialRectangle;connectable=0;fillColor=none;top=0;left=0;bottom=0;right=0;align=left;spacingLeft=6;fontStyle=5;overflow=hidden;" parent="T9H3h0vGYmCpL9f131RO-17" vertex="1">
          <mxGeometry x="30" width="130" height="30" as="geometry">
            <mxRectangle width="130" height="30" as="alternateBounds" />
          </mxGeometry>
        </mxCell>
        <mxCell id="T9H3h0vGYmCpL9f131RO-20" value="" style="shape=tableRow;horizontal=0;startSize=0;swimlaneHead=0;swimlaneBody=0;fillColor=none;collapsible=0;dropTarget=0;points=[[0,0.5],[1,0.5]];portConstraint=eastwest;top=0;left=0;right=0;bottom=0;" parent="T9H3h0vGYmCpL9f131RO-16" vertex="1">
          <mxGeometry y="60" width="160" height="30" as="geometry" />
        </mxCell>
        <mxCell id="T9H3h0vGYmCpL9f131RO-21" value="" style="shape=partialRectangle;connectable=0;fillColor=none;top=0;left=0;bottom=0;right=0;editable=1;overflow=hidden;" parent="T9H3h0vGYmCpL9f131RO-20" vertex="1">
          <mxGeometry width="30" height="30" as="geometry">
            <mxRectangle width="30" height="30" as="alternateBounds" />
          </mxGeometry>
        </mxCell>
        <mxCell id="T9H3h0vGYmCpL9f131RO-22" value="fName" style="shape=partialRectangle;connectable=0;fillColor=none;top=0;left=0;bottom=0;right=0;align=left;spacingLeft=6;overflow=hidden;" parent="T9H3h0vGYmCpL9f131RO-20" vertex="1">
          <mxGeometry x="30" width="130" height="30" as="geometry">
            <mxRectangle width="130" height="30" as="alternateBounds" />
          </mxGeometry>
        </mxCell>
        <mxCell id="T9H3h0vGYmCpL9f131RO-23" value="" style="shape=tableRow;horizontal=0;startSize=0;swimlaneHead=0;swimlaneBody=0;fillColor=none;collapsible=0;dropTarget=0;points=[[0,0.5],[1,0.5]];portConstraint=eastwest;top=0;left=0;right=0;bottom=0;" parent="T9H3h0vGYmCpL9f131RO-16" vertex="1">
          <mxGeometry y="90" width="160" height="30" as="geometry" />
        </mxCell>
        <mxCell id="T9H3h0vGYmCpL9f131RO-24" value="" style="shape=partialRectangle;connectable=0;fillColor=none;top=0;left=0;bottom=0;right=0;editable=1;overflow=hidden;" parent="T9H3h0vGYmCpL9f131RO-23" vertex="1">
          <mxGeometry width="30" height="30" as="geometry">
            <mxRectangle width="30" height="30" as="alternateBounds" />
          </mxGeometry>
        </mxCell>
        <mxCell id="T9H3h0vGYmCpL9f131RO-25" value="mName" style="shape=partialRectangle;connectable=0;fillColor=none;top=0;left=0;bottom=0;right=0;align=left;spacingLeft=6;overflow=hidden;" parent="T9H3h0vGYmCpL9f131RO-23" vertex="1">
          <mxGeometry x="30" width="130" height="30" as="geometry">
            <mxRectangle width="130" height="30" as="alternateBounds" />
          </mxGeometry>
        </mxCell>
        <mxCell id="T9H3h0vGYmCpL9f131RO-26" style="shape=tableRow;horizontal=0;startSize=0;swimlaneHead=0;swimlaneBody=0;fillColor=none;collapsible=0;dropTarget=0;points=[[0,0.5],[1,0.5]];portConstraint=eastwest;top=0;left=0;right=0;bottom=0;" parent="T9H3h0vGYmCpL9f131RO-16" vertex="1">
          <mxGeometry y="120" width="160" height="30" as="geometry" />
        </mxCell>
        <mxCell id="T9H3h0vGYmCpL9f131RO-27" style="shape=partialRectangle;connectable=0;fillColor=none;top=0;left=0;bottom=0;right=0;editable=1;overflow=hidden;" parent="T9H3h0vGYmCpL9f131RO-26" vertex="1">
          <mxGeometry width="30" height="30" as="geometry">
            <mxRectangle width="30" height="30" as="alternateBounds" />
          </mxGeometry>
        </mxCell>
        <mxCell id="T9H3h0vGYmCpL9f131RO-28" value="lName" style="shape=partialRectangle;connectable=0;fillColor=none;top=0;left=0;bottom=0;right=0;align=left;spacingLeft=6;overflow=hidden;" parent="T9H3h0vGYmCpL9f131RO-26" vertex="1">
          <mxGeometry x="30" width="130" height="30" as="geometry">
            <mxRectangle width="130" height="30" as="alternateBounds" />
          </mxGeometry>
        </mxCell>
        <mxCell id="T9H3h0vGYmCpL9f131RO-29" style="shape=tableRow;horizontal=0;startSize=0;swimlaneHead=0;swimlaneBody=0;fillColor=none;collapsible=0;dropTarget=0;points=[[0,0.5],[1,0.5]];portConstraint=eastwest;top=0;left=0;right=0;bottom=0;" parent="T9H3h0vGYmCpL9f131RO-16" vertex="1">
          <mxGeometry y="150" width="160" height="30" as="geometry" />
        </mxCell>
        <mxCell id="T9H3h0vGYmCpL9f131RO-30" style="shape=partialRectangle;connectable=0;fillColor=none;top=0;left=0;bottom=0;right=0;editable=1;overflow=hidden;" parent="T9H3h0vGYmCpL9f131RO-29" vertex="1">
          <mxGeometry width="30" height="30" as="geometry">
            <mxRectangle width="30" height="30" as="alternateBounds" />
          </mxGeometry>
        </mxCell>
        <mxCell id="T9H3h0vGYmCpL9f131RO-31" value="phone" style="shape=partialRectangle;connectable=0;fillColor=none;top=0;left=0;bottom=0;right=0;align=left;spacingLeft=6;overflow=hidden;" parent="T9H3h0vGYmCpL9f131RO-29" vertex="1">
          <mxGeometry x="30" width="130" height="30" as="geometry">
            <mxRectangle width="130" height="30" as="alternateBounds" />
          </mxGeometry>
        </mxCell>
        <mxCell id="T9H3h0vGYmCpL9f131RO-32" style="shape=tableRow;horizontal=0;startSize=0;swimlaneHead=0;swimlaneBody=0;fillColor=none;collapsible=0;dropTarget=0;points=[[0,0.5],[1,0.5]];portConstraint=eastwest;top=0;left=0;right=0;bottom=0;" parent="T9H3h0vGYmCpL9f131RO-16" vertex="1">
          <mxGeometry y="180" width="160" height="30" as="geometry" />
        </mxCell>
        <mxCell id="T9H3h0vGYmCpL9f131RO-33" style="shape=partialRectangle;connectable=0;fillColor=none;top=0;left=0;bottom=0;right=0;editable=1;overflow=hidden;" parent="T9H3h0vGYmCpL9f131RO-32" vertex="1">
          <mxGeometry width="30" height="30" as="geometry">
            <mxRectangle width="30" height="30" as="alternateBounds" />
          </mxGeometry>
        </mxCell>
        <mxCell id="T9H3h0vGYmCpL9f131RO-34" value="email" style="shape=partialRectangle;connectable=0;fillColor=none;top=0;left=0;bottom=0;right=0;align=left;spacingLeft=6;overflow=hidden;" parent="T9H3h0vGYmCpL9f131RO-32" vertex="1">
          <mxGeometry x="30" width="130" height="30" as="geometry">
            <mxRectangle width="130" height="30" as="alternateBounds" />
          </mxGeometry>
        </mxCell>
        <mxCell id="T9H3h0vGYmCpL9f131RO-35" style="shape=tableRow;horizontal=0;startSize=0;swimlaneHead=0;swimlaneBody=0;fillColor=none;collapsible=0;dropTarget=0;points=[[0,0.5],[1,0.5]];portConstraint=eastwest;top=0;left=0;right=0;bottom=0;" parent="T9H3h0vGYmCpL9f131RO-16" vertex="1">
          <mxGeometry y="210" width="160" height="30" as="geometry" />
        </mxCell>
        <mxCell id="T9H3h0vGYmCpL9f131RO-36" style="shape=partialRectangle;connectable=0;fillColor=none;top=0;left=0;bottom=0;right=0;editable=1;overflow=hidden;" parent="T9H3h0vGYmCpL9f131RO-35" vertex="1">
          <mxGeometry width="30" height="30" as="geometry">
            <mxRectangle width="30" height="30" as="alternateBounds" />
          </mxGeometry>
        </mxCell>
        <mxCell id="T9H3h0vGYmCpL9f131RO-37" value="Address" style="shape=partialRectangle;connectable=0;fillColor=none;top=0;left=0;bottom=0;right=0;align=left;spacingLeft=6;overflow=hidden;" parent="T9H3h0vGYmCpL9f131RO-35" vertex="1">
          <mxGeometry x="30" width="130" height="30" as="geometry">
            <mxRectangle width="130" height="30" as="alternateBounds" />
          </mxGeometry>
        </mxCell>
        <mxCell id="T9H3h0vGYmCpL9f131RO-38" style="shape=tableRow;horizontal=0;startSize=0;swimlaneHead=0;swimlaneBody=0;fillColor=none;collapsible=0;dropTarget=0;points=[[0,0.5],[1,0.5]];portConstraint=eastwest;top=0;left=0;right=0;bottom=0;" parent="T9H3h0vGYmCpL9f131RO-16" vertex="1">
          <mxGeometry y="240" width="160" height="30" as="geometry" />
        </mxCell>
        <mxCell id="T9H3h0vGYmCpL9f131RO-39" style="shape=partialRectangle;connectable=0;fillColor=none;top=0;left=0;bottom=0;right=0;editable=1;overflow=hidden;" parent="T9H3h0vGYmCpL9f131RO-38" vertex="1">
          <mxGeometry width="30" height="30" as="geometry">
            <mxRectangle width="30" height="30" as="alternateBounds" />
          </mxGeometry>
        </mxCell>
        <mxCell id="T9H3h0vGYmCpL9f131RO-40" value="    street" style="shape=partialRectangle;connectable=0;fillColor=none;top=0;left=0;bottom=0;right=0;align=left;spacingLeft=6;overflow=hidden;" parent="T9H3h0vGYmCpL9f131RO-38" vertex="1">
          <mxGeometry x="30" width="130" height="30" as="geometry">
            <mxRectangle width="130" height="30" as="alternateBounds" />
          </mxGeometry>
        </mxCell>
        <mxCell id="T9H3h0vGYmCpL9f131RO-41" style="shape=tableRow;horizontal=0;startSize=0;swimlaneHead=0;swimlaneBody=0;fillColor=none;collapsible=0;dropTarget=0;points=[[0,0.5],[1,0.5]];portConstraint=eastwest;top=0;left=0;right=0;bottom=0;" parent="T9H3h0vGYmCpL9f131RO-16" vertex="1">
          <mxGeometry y="270" width="160" height="30" as="geometry" />
        </mxCell>
        <mxCell id="T9H3h0vGYmCpL9f131RO-42" style="shape=partialRectangle;connectable=0;fillColor=none;top=0;left=0;bottom=0;right=0;editable=1;overflow=hidden;" parent="T9H3h0vGYmCpL9f131RO-41" vertex="1">
          <mxGeometry width="30" height="30" as="geometry">
            <mxRectangle width="30" height="30" as="alternateBounds" />
          </mxGeometry>
        </mxCell>
        <mxCell id="T9H3h0vGYmCpL9f131RO-43" value="    city" style="shape=partialRectangle;connectable=0;fillColor=none;top=0;left=0;bottom=0;right=0;align=left;spacingLeft=6;overflow=hidden;" parent="T9H3h0vGYmCpL9f131RO-41" vertex="1">
          <mxGeometry x="30" width="130" height="30" as="geometry">
            <mxRectangle width="130" height="30" as="alternateBounds" />
          </mxGeometry>
        </mxCell>
        <mxCell id="T9H3h0vGYmCpL9f131RO-44" style="shape=tableRow;horizontal=0;startSize=0;swimlaneHead=0;swimlaneBody=0;fillColor=none;collapsible=0;dropTarget=0;points=[[0,0.5],[1,0.5]];portConstraint=eastwest;top=0;left=0;right=0;bottom=0;" parent="T9H3h0vGYmCpL9f131RO-16" vertex="1">
          <mxGeometry y="300" width="160" height="30" as="geometry" />
        </mxCell>
        <mxCell id="T9H3h0vGYmCpL9f131RO-45" style="shape=partialRectangle;connectable=0;fillColor=none;top=0;left=0;bottom=0;right=0;editable=1;overflow=hidden;" parent="T9H3h0vGYmCpL9f131RO-44" vertex="1">
          <mxGeometry width="30" height="30" as="geometry">
            <mxRectangle width="30" height="30" as="alternateBounds" />
          </mxGeometry>
        </mxCell>
        <mxCell id="T9H3h0vGYmCpL9f131RO-46" value="    state" style="shape=partialRectangle;connectable=0;fillColor=none;top=0;left=0;bottom=0;right=0;align=left;spacingLeft=6;overflow=hidden;" parent="T9H3h0vGYmCpL9f131RO-44" vertex="1">
          <mxGeometry x="30" width="130" height="30" as="geometry">
            <mxRectangle width="130" height="30" as="alternateBounds" />
          </mxGeometry>
        </mxCell>
        <mxCell id="T9H3h0vGYmCpL9f131RO-47" style="shape=tableRow;horizontal=0;startSize=0;swimlaneHead=0;swimlaneBody=0;fillColor=none;collapsible=0;dropTarget=0;points=[[0,0.5],[1,0.5]];portConstraint=eastwest;top=0;left=0;right=0;bottom=0;" parent="T9H3h0vGYmCpL9f131RO-16" vertex="1">
          <mxGeometry y="330" width="160" height="30" as="geometry" />
        </mxCell>
        <mxCell id="T9H3h0vGYmCpL9f131RO-48" style="shape=partialRectangle;connectable=0;fillColor=none;top=0;left=0;bottom=0;right=0;editable=1;overflow=hidden;" parent="T9H3h0vGYmCpL9f131RO-47" vertex="1">
          <mxGeometry width="30" height="30" as="geometry">
            <mxRectangle width="30" height="30" as="alternateBounds" />
          </mxGeometry>
        </mxCell>
        <mxCell id="T9H3h0vGYmCpL9f131RO-49" value="    zip" style="shape=partialRectangle;connectable=0;fillColor=none;top=0;left=0;bottom=0;right=0;align=left;spacingLeft=6;overflow=hidden;" parent="T9H3h0vGYmCpL9f131RO-47" vertex="1">
          <mxGeometry x="30" width="130" height="30" as="geometry">
            <mxRectangle width="130" height="30" as="alternateBounds" />
          </mxGeometry>
        </mxCell>
        <mxCell id="Hmh4eKxM6G-qDx6R6XAR-29" style="edgeStyle=orthogonalEdgeStyle;rounded=0;orthogonalLoop=1;jettySize=auto;html=1;entryX=0;entryY=0.5;entryDx=0;entryDy=0;endArrow=none;endFill=0;startArrow=diamondThin;startFill=1;startSize=15;exitX=0.786;exitY=-0.004;exitDx=0;exitDy=0;exitPerimeter=0;" parent="1" source="T9H3h0vGYmCpL9f131RO-50" edge="1">
          <mxGeometry relative="1" as="geometry">
            <Array as="points">
              <mxPoint x="506" y="-1000" />
            </Array>
            <mxPoint x="550" y="-860" as="sourcePoint" />
            <mxPoint x="666.1700000000001" y="-1000" as="targetPoint" />
          </mxGeometry>
        </mxCell>
        <mxCell id="Hmh4eKxM6G-qDx6R6XAR-31" value="1..1" style="edgeLabel;html=1;align=center;verticalAlign=middle;resizable=0;points=[];" parent="Hmh4eKxM6G-qDx6R6XAR-29" vertex="1" connectable="0">
          <mxGeometry x="-0.9423" relative="1" as="geometry">
            <mxPoint x="17" y="-9" as="offset" />
          </mxGeometry>
        </mxCell>
        <mxCell id="Hmh4eKxM6G-qDx6R6XAR-32" value="1..*" style="edgeLabel;html=1;align=center;verticalAlign=middle;resizable=0;points=[];" parent="Hmh4eKxM6G-qDx6R6XAR-29" vertex="1" connectable="0">
          <mxGeometry x="0.9092" y="1" relative="1" as="geometry">
            <mxPoint x="-1" y="-9" as="offset" />
          </mxGeometry>
        </mxCell>
        <mxCell id="T9H3h0vGYmCpL9f131RO-50" value="Order" style="shape=table;startSize=30;container=1;collapsible=1;childLayout=tableLayout;fixedRows=1;rowLines=0;fontStyle=1;align=center;resizeLast=1;" parent="1" vertex="1">
          <mxGeometry x="400" y="-830" width="135" height="211" as="geometry" />
        </mxCell>
        <mxCell id="T9H3h0vGYmCpL9f131RO-51" value="" style="shape=tableRow;horizontal=0;startSize=0;swimlaneHead=0;swimlaneBody=0;fillColor=none;collapsible=0;dropTarget=0;points=[[0,0.5],[1,0.5]];portConstraint=eastwest;top=0;left=0;right=0;bottom=1;" parent="T9H3h0vGYmCpL9f131RO-50" vertex="1">
          <mxGeometry y="30" width="135" height="30" as="geometry" />
        </mxCell>
        <mxCell id="T9H3h0vGYmCpL9f131RO-52" value="PK" style="shape=partialRectangle;connectable=0;fillColor=none;top=0;left=0;bottom=0;right=0;fontStyle=1;overflow=hidden;" parent="T9H3h0vGYmCpL9f131RO-51" vertex="1">
          <mxGeometry width="30" height="30" as="geometry">
            <mxRectangle width="30" height="30" as="alternateBounds" />
          </mxGeometry>
        </mxCell>
        <mxCell id="T9H3h0vGYmCpL9f131RO-53" value="orderID" style="shape=partialRectangle;connectable=0;fillColor=none;top=0;left=0;bottom=0;right=0;align=left;spacingLeft=6;fontStyle=5;overflow=hidden;" parent="T9H3h0vGYmCpL9f131RO-51" vertex="1">
          <mxGeometry x="30" width="105" height="30" as="geometry">
            <mxRectangle width="105" height="30" as="alternateBounds" />
          </mxGeometry>
        </mxCell>
        <mxCell id="SejWWGGofe7o6zFK9CZb-1" style="shape=tableRow;horizontal=0;startSize=0;swimlaneHead=0;swimlaneBody=0;fillColor=none;collapsible=0;dropTarget=0;points=[[0,0.5],[1,0.5]];portConstraint=eastwest;top=0;left=0;right=0;bottom=0;" parent="T9H3h0vGYmCpL9f131RO-50" vertex="1">
          <mxGeometry y="60" width="135" height="30" as="geometry" />
        </mxCell>
        <mxCell id="SejWWGGofe7o6zFK9CZb-2" style="shape=partialRectangle;connectable=0;fillColor=none;top=0;left=0;bottom=0;right=0;editable=1;overflow=hidden;" parent="SejWWGGofe7o6zFK9CZb-1" vertex="1">
          <mxGeometry width="30" height="30" as="geometry">
            <mxRectangle width="30" height="30" as="alternateBounds" />
          </mxGeometry>
        </mxCell>
        <mxCell id="SejWWGGofe7o6zFK9CZb-3" value="shippingCost" style="shape=partialRectangle;connectable=0;fillColor=none;top=0;left=0;bottom=0;right=0;align=left;spacingLeft=6;overflow=hidden;" parent="SejWWGGofe7o6zFK9CZb-1" vertex="1">
          <mxGeometry x="30" width="105" height="30" as="geometry">
            <mxRectangle width="105" height="30" as="alternateBounds" />
          </mxGeometry>
        </mxCell>
        <mxCell id="Hmh4eKxM6G-qDx6R6XAR-1" style="shape=tableRow;horizontal=0;startSize=0;swimlaneHead=0;swimlaneBody=0;fillColor=none;collapsible=0;dropTarget=0;points=[[0,0.5],[1,0.5]];portConstraint=eastwest;top=0;left=0;right=0;bottom=0;" parent="T9H3h0vGYmCpL9f131RO-50" vertex="1">
          <mxGeometry y="90" width="135" height="30" as="geometry" />
        </mxCell>
        <mxCell id="Hmh4eKxM6G-qDx6R6XAR-2" style="shape=partialRectangle;connectable=0;fillColor=none;top=0;left=0;bottom=0;right=0;editable=1;overflow=hidden;" parent="Hmh4eKxM6G-qDx6R6XAR-1" vertex="1">
          <mxGeometry width="30" height="30" as="geometry">
            <mxRectangle width="30" height="30" as="alternateBounds" />
          </mxGeometry>
        </mxCell>
        <mxCell id="Hmh4eKxM6G-qDx6R6XAR-3" value="orderTimestamp" style="shape=partialRectangle;connectable=0;fillColor=none;top=0;left=0;bottom=0;right=0;align=left;spacingLeft=6;overflow=hidden;" parent="Hmh4eKxM6G-qDx6R6XAR-1" vertex="1">
          <mxGeometry x="30" width="105" height="30" as="geometry">
            <mxRectangle width="105" height="30" as="alternateBounds" />
          </mxGeometry>
        </mxCell>
        <mxCell id="TOUEcTrmlOgOWaua0EUg-7" style="shape=tableRow;horizontal=0;startSize=0;swimlaneHead=0;swimlaneBody=0;fillColor=none;collapsible=0;dropTarget=0;points=[[0,0.5],[1,0.5]];portConstraint=eastwest;top=0;left=0;right=0;bottom=0;" parent="T9H3h0vGYmCpL9f131RO-50" vertex="1">
          <mxGeometry y="120" width="135" height="30" as="geometry" />
        </mxCell>
        <mxCell id="TOUEcTrmlOgOWaua0EUg-8" style="shape=partialRectangle;connectable=0;fillColor=none;top=0;left=0;bottom=0;right=0;editable=1;overflow=hidden;" parent="TOUEcTrmlOgOWaua0EUg-7" vertex="1">
          <mxGeometry width="30" height="30" as="geometry">
            <mxRectangle width="30" height="30" as="alternateBounds" />
          </mxGeometry>
        </mxCell>
        <mxCell id="TOUEcTrmlOgOWaua0EUg-9" value="/orderSubtotal" style="shape=partialRectangle;connectable=0;fillColor=none;top=0;left=0;bottom=0;right=0;align=left;spacingLeft=6;overflow=hidden;" parent="TOUEcTrmlOgOWaua0EUg-7" vertex="1">
          <mxGeometry x="30" width="105" height="30" as="geometry">
            <mxRectangle width="105" height="30" as="alternateBounds" />
          </mxGeometry>
        </mxCell>
        <mxCell id="T9H3h0vGYmCpL9f131RO-60" style="shape=tableRow;horizontal=0;startSize=0;swimlaneHead=0;swimlaneBody=0;fillColor=none;collapsible=0;dropTarget=0;points=[[0,0.5],[1,0.5]];portConstraint=eastwest;top=0;left=0;right=0;bottom=0;" parent="T9H3h0vGYmCpL9f131RO-50" vertex="1">
          <mxGeometry y="150" width="135" height="30" as="geometry" />
        </mxCell>
        <mxCell id="T9H3h0vGYmCpL9f131RO-61" style="shape=partialRectangle;connectable=0;fillColor=none;top=0;left=0;bottom=0;right=0;editable=1;overflow=hidden;" parent="T9H3h0vGYmCpL9f131RO-60" vertex="1">
          <mxGeometry width="30" height="30" as="geometry">
            <mxRectangle width="30" height="30" as="alternateBounds" />
          </mxGeometry>
        </mxCell>
        <mxCell id="T9H3h0vGYmCpL9f131RO-62" value="/orderTax" style="shape=partialRectangle;connectable=0;fillColor=none;top=0;left=0;bottom=0;right=0;align=left;spacingLeft=6;overflow=hidden;" parent="T9H3h0vGYmCpL9f131RO-60" vertex="1">
          <mxGeometry x="30" width="105" height="30" as="geometry">
            <mxRectangle width="105" height="30" as="alternateBounds" />
          </mxGeometry>
        </mxCell>
        <mxCell id="T9H3h0vGYmCpL9f131RO-63" style="shape=tableRow;horizontal=0;startSize=0;swimlaneHead=0;swimlaneBody=0;fillColor=none;collapsible=0;dropTarget=0;points=[[0,0.5],[1,0.5]];portConstraint=eastwest;top=0;left=0;right=0;bottom=0;" parent="T9H3h0vGYmCpL9f131RO-50" vertex="1">
          <mxGeometry y="180" width="135" height="30" as="geometry" />
        </mxCell>
        <mxCell id="T9H3h0vGYmCpL9f131RO-64" style="shape=partialRectangle;connectable=0;fillColor=none;top=0;left=0;bottom=0;right=0;editable=1;overflow=hidden;" parent="T9H3h0vGYmCpL9f131RO-63" vertex="1">
          <mxGeometry width="30" height="30" as="geometry">
            <mxRectangle width="30" height="30" as="alternateBounds" />
          </mxGeometry>
        </mxCell>
        <mxCell id="T9H3h0vGYmCpL9f131RO-65" value="/orderTotal" style="shape=partialRectangle;connectable=0;fillColor=none;top=0;left=0;bottom=0;right=0;align=left;spacingLeft=6;overflow=hidden;" parent="T9H3h0vGYmCpL9f131RO-63" vertex="1">
          <mxGeometry x="30" width="105" height="30" as="geometry">
            <mxRectangle width="105" height="30" as="alternateBounds" />
          </mxGeometry>
        </mxCell>
        <mxCell id="T9H3h0vGYmCpL9f131RO-156" style="edgeStyle=orthogonalEdgeStyle;rounded=0;orthogonalLoop=1;jettySize=auto;html=1;exitX=1.003;exitY=0.105;exitDx=0;exitDy=0;startArrow=none;startFill=0;endArrow=none;endFill=0;startSize=15;endSize=6;targetPerimeterSpacing=0;exitPerimeter=0;" parent="1" source="T9H3h0vGYmCpL9f131RO-94" edge="1">
          <mxGeometry relative="1" as="geometry">
            <Array as="points">
              <mxPoint x="440" y="-932" />
            </Array>
            <mxPoint x="440" y="-830" as="targetPoint" />
          </mxGeometry>
        </mxCell>
        <mxCell id="T9H3h0vGYmCpL9f131RO-157" value="1..1" style="edgeLabel;html=1;align=center;verticalAlign=middle;resizable=0;points=[];" parent="T9H3h0vGYmCpL9f131RO-156" vertex="1" connectable="0">
          <mxGeometry x="0.7905" relative="1" as="geometry">
            <mxPoint x="-18" y="4" as="offset" />
          </mxGeometry>
        </mxCell>
        <mxCell id="ZvfcM262-q8hdRxWAJCq-19" value="1..1" style="edgeLabel;html=1;align=center;verticalAlign=middle;resizable=0;points=[];" parent="T9H3h0vGYmCpL9f131RO-156" vertex="1" connectable="0">
          <mxGeometry x="-0.8668" y="1" relative="1" as="geometry">
            <mxPoint x="1" y="-9" as="offset" />
          </mxGeometry>
        </mxCell>
        <mxCell id="T9H3h0vGYmCpL9f131RO-84" value="Payment" style="shape=table;startSize=30;container=1;collapsible=1;childLayout=tableLayout;fixedRows=1;rowLines=0;fontStyle=1;align=center;resizeLast=1;" parent="1" vertex="1">
          <mxGeometry x="199.99999999999997" y="-1056" width="143.83" height="150" as="geometry" />
        </mxCell>
        <mxCell id="T9H3h0vGYmCpL9f131RO-85" value="" style="shape=tableRow;horizontal=0;startSize=0;swimlaneHead=0;swimlaneBody=0;fillColor=none;collapsible=0;dropTarget=0;points=[[0,0.5],[1,0.5]];portConstraint=eastwest;top=0;left=0;right=0;bottom=1;" parent="T9H3h0vGYmCpL9f131RO-84" vertex="1">
          <mxGeometry y="30" width="143.83" height="30" as="geometry" />
        </mxCell>
        <mxCell id="T9H3h0vGYmCpL9f131RO-86" value="PK" style="shape=partialRectangle;connectable=0;fillColor=none;top=0;left=0;bottom=0;right=0;fontStyle=1;overflow=hidden;" parent="T9H3h0vGYmCpL9f131RO-85" vertex="1">
          <mxGeometry width="30" height="30" as="geometry">
            <mxRectangle width="30" height="30" as="alternateBounds" />
          </mxGeometry>
        </mxCell>
        <mxCell id="T9H3h0vGYmCpL9f131RO-87" value="paymentID" style="shape=partialRectangle;connectable=0;fillColor=none;top=0;left=0;bottom=0;right=0;align=left;spacingLeft=6;fontStyle=5;overflow=hidden;" parent="T9H3h0vGYmCpL9f131RO-85" vertex="1">
          <mxGeometry x="30" width="113.83000000000001" height="30" as="geometry">
            <mxRectangle width="113.83000000000001" height="30" as="alternateBounds" />
          </mxGeometry>
        </mxCell>
        <mxCell id="T9H3h0vGYmCpL9f131RO-88" value="" style="shape=tableRow;horizontal=0;startSize=0;swimlaneHead=0;swimlaneBody=0;fillColor=none;collapsible=0;dropTarget=0;points=[[0,0.5],[1,0.5]];portConstraint=eastwest;top=0;left=0;right=0;bottom=0;" parent="T9H3h0vGYmCpL9f131RO-84" vertex="1">
          <mxGeometry y="60" width="143.83" height="30" as="geometry" />
        </mxCell>
        <mxCell id="T9H3h0vGYmCpL9f131RO-89" value="" style="shape=partialRectangle;connectable=0;fillColor=none;top=0;left=0;bottom=0;right=0;editable=1;overflow=hidden;" parent="T9H3h0vGYmCpL9f131RO-88" vertex="1">
          <mxGeometry width="30" height="30" as="geometry">
            <mxRectangle width="30" height="30" as="alternateBounds" />
          </mxGeometry>
        </mxCell>
        <mxCell id="T9H3h0vGYmCpL9f131RO-90" value="paymentType" style="shape=partialRectangle;connectable=0;fillColor=none;top=0;left=0;bottom=0;right=0;align=left;spacingLeft=6;overflow=hidden;" parent="T9H3h0vGYmCpL9f131RO-88" vertex="1">
          <mxGeometry x="30" width="113.83000000000001" height="30" as="geometry">
            <mxRectangle width="113.83000000000001" height="30" as="alternateBounds" />
          </mxGeometry>
        </mxCell>
        <mxCell id="T9H3h0vGYmCpL9f131RO-91" value="" style="shape=tableRow;horizontal=0;startSize=0;swimlaneHead=0;swimlaneBody=0;fillColor=none;collapsible=0;dropTarget=0;points=[[0,0.5],[1,0.5]];portConstraint=eastwest;top=0;left=0;right=0;bottom=0;" parent="T9H3h0vGYmCpL9f131RO-84" vertex="1">
          <mxGeometry y="90" width="143.83" height="30" as="geometry" />
        </mxCell>
        <mxCell id="T9H3h0vGYmCpL9f131RO-92" value="" style="shape=partialRectangle;connectable=0;fillColor=none;top=0;left=0;bottom=0;right=0;editable=1;overflow=hidden;" parent="T9H3h0vGYmCpL9f131RO-91" vertex="1">
          <mxGeometry width="30" height="30" as="geometry">
            <mxRectangle width="30" height="30" as="alternateBounds" />
          </mxGeometry>
        </mxCell>
        <mxCell id="T9H3h0vGYmCpL9f131RO-93" value="paymentDigits" style="shape=partialRectangle;connectable=0;fillColor=none;top=0;left=0;bottom=0;right=0;align=left;spacingLeft=6;overflow=hidden;" parent="T9H3h0vGYmCpL9f131RO-91" vertex="1">
          <mxGeometry x="30" width="113.83000000000001" height="30" as="geometry">
            <mxRectangle width="113.83000000000001" height="30" as="alternateBounds" />
          </mxGeometry>
        </mxCell>
        <mxCell id="T9H3h0vGYmCpL9f131RO-94" style="shape=tableRow;horizontal=0;startSize=0;swimlaneHead=0;swimlaneBody=0;fillColor=none;collapsible=0;dropTarget=0;points=[[0,0.5],[1,0.5]];portConstraint=eastwest;top=0;left=0;right=0;bottom=0;" parent="T9H3h0vGYmCpL9f131RO-84" vertex="1">
          <mxGeometry y="120" width="143.83" height="30" as="geometry" />
        </mxCell>
        <mxCell id="T9H3h0vGYmCpL9f131RO-95" style="shape=partialRectangle;connectable=0;fillColor=none;top=0;left=0;bottom=0;right=0;editable=1;overflow=hidden;" parent="T9H3h0vGYmCpL9f131RO-94" vertex="1">
          <mxGeometry width="30" height="30" as="geometry">
            <mxRectangle width="30" height="30" as="alternateBounds" />
          </mxGeometry>
        </mxCell>
        <mxCell id="T9H3h0vGYmCpL9f131RO-96" value="paymentCompany" style="shape=partialRectangle;connectable=0;fillColor=none;top=0;left=0;bottom=0;right=0;align=left;spacingLeft=6;overflow=hidden;" parent="T9H3h0vGYmCpL9f131RO-94" vertex="1">
          <mxGeometry x="30" width="113.83000000000001" height="30" as="geometry">
            <mxRectangle width="113.83000000000001" height="30" as="alternateBounds" />
          </mxGeometry>
        </mxCell>
        <mxCell id="T9H3h0vGYmCpL9f131RO-116" value="LineItem" style="shape=table;startSize=30;container=1;collapsible=1;childLayout=tableLayout;fixedRows=1;rowLines=0;fontStyle=1;align=center;resizeLast=1;" parent="1" vertex="1">
          <mxGeometry x="680" y="-830" width="130" height="155" as="geometry" />
        </mxCell>
        <mxCell id="T9H3h0vGYmCpL9f131RO-117" value="" style="shape=tableRow;horizontal=0;startSize=0;swimlaneHead=0;swimlaneBody=0;fillColor=none;collapsible=0;dropTarget=0;points=[[0,0.5],[1,0.5]];portConstraint=eastwest;top=0;left=0;right=0;bottom=1;" parent="T9H3h0vGYmCpL9f131RO-116" vertex="1">
          <mxGeometry y="30" width="130" height="30" as="geometry" />
        </mxCell>
        <mxCell id="T9H3h0vGYmCpL9f131RO-118" value="PPK" style="shape=partialRectangle;connectable=0;fillColor=none;top=0;left=0;bottom=0;right=0;fontStyle=1;overflow=hidden;" parent="T9H3h0vGYmCpL9f131RO-117" vertex="1">
          <mxGeometry width="30" height="30" as="geometry">
            <mxRectangle width="30" height="30" as="alternateBounds" />
          </mxGeometry>
        </mxCell>
        <mxCell id="T9H3h0vGYmCpL9f131RO-119" value="lineNum" style="shape=partialRectangle;connectable=0;fillColor=none;top=0;left=0;bottom=0;right=0;align=left;spacingLeft=6;fontStyle=5;overflow=hidden;" parent="T9H3h0vGYmCpL9f131RO-117" vertex="1">
          <mxGeometry x="30" width="100" height="30" as="geometry">
            <mxRectangle width="100" height="30" as="alternateBounds" />
          </mxGeometry>
        </mxCell>
        <mxCell id="T9H3h0vGYmCpL9f131RO-120" value="" style="shape=tableRow;horizontal=0;startSize=0;swimlaneHead=0;swimlaneBody=0;fillColor=none;collapsible=0;dropTarget=0;points=[[0,0.5],[1,0.5]];portConstraint=eastwest;top=0;left=0;right=0;bottom=0;" parent="T9H3h0vGYmCpL9f131RO-116" vertex="1">
          <mxGeometry y="60" width="130" height="30" as="geometry" />
        </mxCell>
        <mxCell id="T9H3h0vGYmCpL9f131RO-121" value="" style="shape=partialRectangle;connectable=0;fillColor=none;top=0;left=0;bottom=0;right=0;editable=1;overflow=hidden;" parent="T9H3h0vGYmCpL9f131RO-120" vertex="1">
          <mxGeometry width="30" height="30" as="geometry">
            <mxRectangle width="30" height="30" as="alternateBounds" />
          </mxGeometry>
        </mxCell>
        <mxCell id="T9H3h0vGYmCpL9f131RO-122" value="quantity" style="shape=partialRectangle;connectable=0;fillColor=none;top=0;left=0;bottom=0;right=0;align=left;spacingLeft=6;overflow=hidden;" parent="T9H3h0vGYmCpL9f131RO-120" vertex="1">
          <mxGeometry x="30" width="100" height="30" as="geometry">
            <mxRectangle width="100" height="30" as="alternateBounds" />
          </mxGeometry>
        </mxCell>
        <mxCell id="T9H3h0vGYmCpL9f131RO-123" value="" style="shape=tableRow;horizontal=0;startSize=0;swimlaneHead=0;swimlaneBody=0;fillColor=none;collapsible=0;dropTarget=0;points=[[0,0.5],[1,0.5]];portConstraint=eastwest;top=0;left=0;right=0;bottom=0;" parent="T9H3h0vGYmCpL9f131RO-116" vertex="1">
          <mxGeometry y="90" width="130" height="35" as="geometry" />
        </mxCell>
        <mxCell id="T9H3h0vGYmCpL9f131RO-124" value="" style="shape=partialRectangle;connectable=0;fillColor=none;top=0;left=0;bottom=0;right=0;editable=1;overflow=hidden;" parent="T9H3h0vGYmCpL9f131RO-123" vertex="1">
          <mxGeometry width="30" height="35" as="geometry">
            <mxRectangle width="30" height="35" as="alternateBounds" />
          </mxGeometry>
        </mxCell>
        <mxCell id="T9H3h0vGYmCpL9f131RO-125" value="discount" style="shape=partialRectangle;connectable=0;fillColor=none;top=0;left=0;bottom=0;right=0;align=left;spacingLeft=6;overflow=hidden;" parent="T9H3h0vGYmCpL9f131RO-123" vertex="1">
          <mxGeometry x="30" width="100" height="35" as="geometry">
            <mxRectangle width="100" height="35" as="alternateBounds" />
          </mxGeometry>
        </mxCell>
        <mxCell id="T9H3h0vGYmCpL9f131RO-126" style="shape=tableRow;horizontal=0;startSize=0;swimlaneHead=0;swimlaneBody=0;fillColor=none;collapsible=0;dropTarget=0;points=[[0,0.5],[1,0.5]];portConstraint=eastwest;top=0;left=0;right=0;bottom=0;" parent="T9H3h0vGYmCpL9f131RO-116" vertex="1">
          <mxGeometry y="125" width="130" height="30" as="geometry" />
        </mxCell>
        <mxCell id="T9H3h0vGYmCpL9f131RO-127" style="shape=partialRectangle;connectable=0;fillColor=none;top=0;left=0;bottom=0;right=0;editable=1;overflow=hidden;" parent="T9H3h0vGYmCpL9f131RO-126" vertex="1">
          <mxGeometry width="30" height="30" as="geometry">
            <mxRectangle width="30" height="30" as="alternateBounds" />
          </mxGeometry>
        </mxCell>
        <mxCell id="T9H3h0vGYmCpL9f131RO-128" value="/total" style="shape=partialRectangle;connectable=0;fillColor=none;top=0;left=0;bottom=0;right=0;align=left;spacingLeft=6;overflow=hidden;" parent="T9H3h0vGYmCpL9f131RO-126" vertex="1">
          <mxGeometry x="30" width="100" height="30" as="geometry">
            <mxRectangle width="100" height="30" as="alternateBounds" />
          </mxGeometry>
        </mxCell>
        <mxCell id="T9H3h0vGYmCpL9f131RO-133" style="edgeStyle=orthogonalEdgeStyle;rounded=0;orthogonalLoop=1;jettySize=auto;html=1;exitX=1;exitY=0.5;exitDx=0;exitDy=0;entryX=0;entryY=0.5;entryDx=0;entryDy=0;endArrow=none;endFill=0;" parent="1" source="T9H3h0vGYmCpL9f131RO-17" target="T9H3h0vGYmCpL9f131RO-51" edge="1">
          <mxGeometry relative="1" as="geometry" />
        </mxCell>
        <mxCell id="T9H3h0vGYmCpL9f131RO-134" value="1..*" style="edgeLabel;html=1;align=center;verticalAlign=middle;resizable=0;points=[];" parent="T9H3h0vGYmCpL9f131RO-133" vertex="1" connectable="0">
          <mxGeometry x="0.8091" y="-2" relative="1" as="geometry">
            <mxPoint y="-11" as="offset" />
          </mxGeometry>
        </mxCell>
        <mxCell id="T9H3h0vGYmCpL9f131RO-135" value="1..1" style="edgeLabel;html=1;align=center;verticalAlign=middle;resizable=0;points=[];" parent="T9H3h0vGYmCpL9f131RO-133" vertex="1" connectable="0">
          <mxGeometry x="-0.8916" y="1" relative="1" as="geometry">
            <mxPoint x="2" y="-9" as="offset" />
          </mxGeometry>
        </mxCell>
        <mxCell id="T9H3h0vGYmCpL9f131RO-137" value="" style="endArrow=classic;html=1;rounded=0;" parent="1" edge="1">
          <mxGeometry width="50" height="50" relative="1" as="geometry">
            <mxPoint x="331.33" y="-793" as="sourcePoint" />
            <mxPoint x="338.33" y="-793" as="targetPoint" />
          </mxGeometry>
        </mxCell>
        <mxCell id="T9H3h0vGYmCpL9f131RO-138" value="Create" style="edgeLabel;html=1;align=center;verticalAlign=middle;resizable=0;points=[];" parent="T9H3h0vGYmCpL9f131RO-137" vertex="1" connectable="0">
          <mxGeometry x="-0.5644" y="1" relative="1" as="geometry">
            <mxPoint x="-23" y="-2" as="offset" />
          </mxGeometry>
        </mxCell>
        <mxCell id="T9H3h0vGYmCpL9f131RO-139" style="edgeStyle=orthogonalEdgeStyle;rounded=0;orthogonalLoop=1;jettySize=auto;html=1;entryX=0;entryY=0.5;entryDx=0;entryDy=0;endArrow=none;endFill=0;startArrow=diamondThin;startFill=1;targetPerimeterSpacing=0;endSize=6;startSize=15;" parent="1" source="T9H3h0vGYmCpL9f131RO-51" target="T9H3h0vGYmCpL9f131RO-117" edge="1">
          <mxGeometry relative="1" as="geometry" />
        </mxCell>
        <mxCell id="T9H3h0vGYmCpL9f131RO-140" value="1..1" style="edgeLabel;html=1;align=center;verticalAlign=middle;resizable=0;points=[];" parent="T9H3h0vGYmCpL9f131RO-139" vertex="1" connectable="0">
          <mxGeometry x="-0.6049" relative="1" as="geometry">
            <mxPoint y="-9" as="offset" />
          </mxGeometry>
        </mxCell>
        <mxCell id="T9H3h0vGYmCpL9f131RO-141" value="1..*" style="edgeLabel;html=1;align=center;verticalAlign=middle;resizable=0;points=[];" parent="T9H3h0vGYmCpL9f131RO-139" vertex="1" connectable="0">
          <mxGeometry x="0.778" y="2" relative="1" as="geometry">
            <mxPoint x="-2" y="-8" as="offset" />
          </mxGeometry>
        </mxCell>
        <mxCell id="T9H3h0vGYmCpL9f131RO-150" value="" style="endArrow=classic;html=1;rounded=0;" parent="1" edge="1">
          <mxGeometry width="50" height="50" relative="1" as="geometry">
            <mxPoint x="636" y="-792" as="sourcePoint" />
            <mxPoint x="643" y="-792" as="targetPoint" />
          </mxGeometry>
        </mxCell>
        <mxCell id="T9H3h0vGYmCpL9f131RO-151" value="Contains" style="edgeLabel;html=1;align=center;verticalAlign=middle;resizable=0;points=[];" parent="T9H3h0vGYmCpL9f131RO-150" vertex="1" connectable="0">
          <mxGeometry x="-0.5644" y="1" relative="1" as="geometry">
            <mxPoint x="-28" as="offset" />
          </mxGeometry>
        </mxCell>
        <mxCell id="T9H3h0vGYmCpL9f131RO-153" value="1..1" style="edgeLabel;html=1;align=center;verticalAlign=middle;resizable=0;points=[];" parent="1" vertex="1" connectable="0">
          <mxGeometry x="763.5048661229091" y="-570.0038046486754" as="geometry" />
        </mxCell>
        <mxCell id="T9H3h0vGYmCpL9f131RO-154" value="" style="endArrow=classic;html=1;rounded=0;" parent="1" edge="1">
          <mxGeometry width="50" height="50" relative="1" as="geometry">
            <mxPoint x="765.2" y="-608" as="sourcePoint" />
            <mxPoint x="765.2" y="-602" as="targetPoint" />
          </mxGeometry>
        </mxCell>
        <mxCell id="T9H3h0vGYmCpL9f131RO-155" value="Sells" style="edgeLabel;html=1;align=center;verticalAlign=middle;resizable=0;points=[];" parent="T9H3h0vGYmCpL9f131RO-154" vertex="1" connectable="0">
          <mxGeometry x="-0.5644" y="1" relative="1" as="geometry">
            <mxPoint y="-11" as="offset" />
          </mxGeometry>
        </mxCell>
        <mxCell id="T9H3h0vGYmCpL9f131RO-159" value="" style="endArrow=classic;html=1;rounded=0;" parent="1" edge="1">
          <mxGeometry width="50" height="50" relative="1" as="geometry">
            <mxPoint x="404.3" y="-941" as="sourcePoint" />
            <mxPoint x="398.3" y="-941" as="targetPoint" />
            <Array as="points">
              <mxPoint x="404.3" y="-941" />
            </Array>
          </mxGeometry>
        </mxCell>
        <mxCell id="T9H3h0vGYmCpL9f131RO-160" value="Paid" style="edgeLabel;html=1;align=center;verticalAlign=middle;resizable=0;points=[];" parent="T9H3h0vGYmCpL9f131RO-159" vertex="1" connectable="0">
          <mxGeometry x="-0.5644" y="1" relative="1" as="geometry">
            <mxPoint x="19" y="-1" as="offset" />
          </mxGeometry>
        </mxCell>
        <mxCell id="lWZIeqEYPeQendmDElFm-4" value="" style="endArrow=none;html=1;rounded=0;exitX=0.439;exitY=1.046;exitDx=0;exitDy=0;exitPerimeter=0;entryX=0;entryY=0.5;entryDx=0;entryDy=0;edgeStyle=orthogonalEdgeStyle;" parent="1" source="T9H3h0vGYmCpL9f131RO-47" target="T9H3h0vGYmCpL9f131RO-4" edge="1">
          <mxGeometry relative="1" as="geometry">
            <mxPoint x="150" y="-430.01" as="sourcePoint" />
            <mxPoint x="422.1600000000001" y="-275" as="targetPoint" />
            <Array as="points">
              <mxPoint x="150" y="-275" />
            </Array>
          </mxGeometry>
        </mxCell>
        <mxCell id="ZvfcM262-q8hdRxWAJCq-31" value="0..*" style="edgeLabel;html=1;align=center;verticalAlign=middle;resizable=0;points=[];" parent="lWZIeqEYPeQendmDElFm-4" vertex="1" connectable="0">
          <mxGeometry x="-0.9265" relative="1" as="geometry">
            <mxPoint x="14" y="-8" as="offset" />
          </mxGeometry>
        </mxCell>
        <mxCell id="MBpQapI2-sTePa0hEt9v-15" value="0..*" style="edgeLabel;html=1;align=center;verticalAlign=middle;resizable=0;points=[];" parent="lWZIeqEYPeQendmDElFm-4" vertex="1" connectable="0">
          <mxGeometry x="0.9504" y="-2" relative="1" as="geometry">
            <mxPoint y="-14" as="offset" />
          </mxGeometry>
        </mxCell>
        <mxCell id="ZvfcM262-q8hdRxWAJCq-29" value="" style="endArrow=classic;html=1;rounded=0;" parent="1" edge="1">
          <mxGeometry width="50" height="50" relative="1" as="geometry">
            <mxPoint x="366.5" y="-286" as="sourcePoint" />
            <mxPoint x="373.5" y="-286" as="targetPoint" />
          </mxGeometry>
        </mxCell>
        <mxCell id="ZvfcM262-q8hdRxWAJCq-30" value="Save" style="edgeLabel;html=1;align=center;verticalAlign=middle;resizable=0;points=[];" parent="ZvfcM262-q8hdRxWAJCq-29" vertex="1" connectable="0">
          <mxGeometry x="-0.5644" y="1" relative="1" as="geometry">
            <mxPoint x="-21" y="1" as="offset" />
          </mxGeometry>
        </mxCell>
        <mxCell id="Hmh4eKxM6G-qDx6R6XAR-7" value="Shipment" style="shape=table;startSize=30;container=1;collapsible=1;childLayout=tableLayout;fixedRows=1;rowLines=0;fontStyle=1;align=center;resizeLast=1;" parent="1" vertex="1">
          <mxGeometry x="666.17" y="-1155" width="143.83" height="250" as="geometry" />
        </mxCell>
        <mxCell id="Hmh4eKxM6G-qDx6R6XAR-8" value="" style="shape=tableRow;horizontal=0;startSize=0;swimlaneHead=0;swimlaneBody=0;fillColor=none;collapsible=0;dropTarget=0;points=[[0,0.5],[1,0.5]];portConstraint=eastwest;top=0;left=0;right=0;bottom=1;" parent="Hmh4eKxM6G-qDx6R6XAR-7" vertex="1">
          <mxGeometry y="30" width="143.83" height="30" as="geometry" />
        </mxCell>
        <mxCell id="Hmh4eKxM6G-qDx6R6XAR-9" value="PPK" style="shape=partialRectangle;connectable=0;fillColor=none;top=0;left=0;bottom=0;right=0;fontStyle=1;overflow=hidden;" parent="Hmh4eKxM6G-qDx6R6XAR-8" vertex="1">
          <mxGeometry width="30" height="30" as="geometry">
            <mxRectangle width="30" height="30" as="alternateBounds" />
          </mxGeometry>
        </mxCell>
        <mxCell id="Hmh4eKxM6G-qDx6R6XAR-10" value="trackingNo" style="shape=partialRectangle;connectable=0;fillColor=none;top=0;left=0;bottom=0;right=0;align=left;spacingLeft=6;fontStyle=5;overflow=hidden;" parent="Hmh4eKxM6G-qDx6R6XAR-8" vertex="1">
          <mxGeometry x="30" width="113.83000000000001" height="30" as="geometry">
            <mxRectangle width="113.83000000000001" height="30" as="alternateBounds" />
          </mxGeometry>
        </mxCell>
        <mxCell id="Hmh4eKxM6G-qDx6R6XAR-11" value="" style="shape=tableRow;horizontal=0;startSize=0;swimlaneHead=0;swimlaneBody=0;fillColor=none;collapsible=0;dropTarget=0;points=[[0,0.5],[1,0.5]];portConstraint=eastwest;top=0;left=0;right=0;bottom=0;" parent="Hmh4eKxM6G-qDx6R6XAR-7" vertex="1">
          <mxGeometry y="60" width="143.83" height="30" as="geometry" />
        </mxCell>
        <mxCell id="Hmh4eKxM6G-qDx6R6XAR-12" value="" style="shape=partialRectangle;connectable=0;fillColor=none;top=0;left=0;bottom=0;right=0;editable=1;overflow=hidden;" parent="Hmh4eKxM6G-qDx6R6XAR-11" vertex="1">
          <mxGeometry width="30" height="30" as="geometry">
            <mxRectangle width="30" height="30" as="alternateBounds" />
          </mxGeometry>
        </mxCell>
        <mxCell id="Hmh4eKxM6G-qDx6R6XAR-13" value="shippingAddress" style="shape=partialRectangle;connectable=0;fillColor=none;top=0;left=0;bottom=0;right=0;align=left;spacingLeft=6;overflow=hidden;" parent="Hmh4eKxM6G-qDx6R6XAR-11" vertex="1">
          <mxGeometry x="30" width="113.83000000000001" height="30" as="geometry">
            <mxRectangle width="113.83000000000001" height="30" as="alternateBounds" />
          </mxGeometry>
        </mxCell>
        <mxCell id="Hmh4eKxM6G-qDx6R6XAR-14" value="" style="shape=tableRow;horizontal=0;startSize=0;swimlaneHead=0;swimlaneBody=0;fillColor=none;collapsible=0;dropTarget=0;points=[[0,0.5],[1,0.5]];portConstraint=eastwest;top=0;left=0;right=0;bottom=0;" parent="Hmh4eKxM6G-qDx6R6XAR-7" vertex="1">
          <mxGeometry y="90" width="143.83" height="30" as="geometry" />
        </mxCell>
        <mxCell id="Hmh4eKxM6G-qDx6R6XAR-15" value="" style="shape=partialRectangle;connectable=0;fillColor=none;top=0;left=0;bottom=0;right=0;editable=1;overflow=hidden;" parent="Hmh4eKxM6G-qDx6R6XAR-14" vertex="1">
          <mxGeometry width="30" height="30" as="geometry">
            <mxRectangle width="30" height="30" as="alternateBounds" />
          </mxGeometry>
        </mxCell>
        <mxCell id="Hmh4eKxM6G-qDx6R6XAR-16" value="    street" style="shape=partialRectangle;connectable=0;fillColor=none;top=0;left=0;bottom=0;right=0;align=left;spacingLeft=6;overflow=hidden;" parent="Hmh4eKxM6G-qDx6R6XAR-14" vertex="1">
          <mxGeometry x="30" width="113.83000000000001" height="30" as="geometry">
            <mxRectangle width="113.83000000000001" height="30" as="alternateBounds" />
          </mxGeometry>
        </mxCell>
        <mxCell id="Hmh4eKxM6G-qDx6R6XAR-17" style="shape=tableRow;horizontal=0;startSize=0;swimlaneHead=0;swimlaneBody=0;fillColor=none;collapsible=0;dropTarget=0;points=[[0,0.5],[1,0.5]];portConstraint=eastwest;top=0;left=0;right=0;bottom=0;" parent="Hmh4eKxM6G-qDx6R6XAR-7" vertex="1">
          <mxGeometry y="120" width="143.83" height="30" as="geometry" />
        </mxCell>
        <mxCell id="Hmh4eKxM6G-qDx6R6XAR-18" style="shape=partialRectangle;connectable=0;fillColor=none;top=0;left=0;bottom=0;right=0;editable=1;overflow=hidden;" parent="Hmh4eKxM6G-qDx6R6XAR-17" vertex="1">
          <mxGeometry width="30" height="30" as="geometry">
            <mxRectangle width="30" height="30" as="alternateBounds" />
          </mxGeometry>
        </mxCell>
        <mxCell id="Hmh4eKxM6G-qDx6R6XAR-19" value="    city" style="shape=partialRectangle;connectable=0;fillColor=none;top=0;left=0;bottom=0;right=0;align=left;spacingLeft=6;overflow=hidden;" parent="Hmh4eKxM6G-qDx6R6XAR-17" vertex="1">
          <mxGeometry x="30" width="113.83000000000001" height="30" as="geometry">
            <mxRectangle width="113.83000000000001" height="30" as="alternateBounds" />
          </mxGeometry>
        </mxCell>
        <mxCell id="Hmh4eKxM6G-qDx6R6XAR-20" style="shape=tableRow;horizontal=0;startSize=0;swimlaneHead=0;swimlaneBody=0;fillColor=none;collapsible=0;dropTarget=0;points=[[0,0.5],[1,0.5]];portConstraint=eastwest;top=0;left=0;right=0;bottom=0;" parent="Hmh4eKxM6G-qDx6R6XAR-7" vertex="1">
          <mxGeometry y="150" width="143.83" height="30" as="geometry" />
        </mxCell>
        <mxCell id="Hmh4eKxM6G-qDx6R6XAR-21" style="shape=partialRectangle;connectable=0;fillColor=none;top=0;left=0;bottom=0;right=0;editable=1;overflow=hidden;" parent="Hmh4eKxM6G-qDx6R6XAR-20" vertex="1">
          <mxGeometry width="30" height="30" as="geometry">
            <mxRectangle width="30" height="30" as="alternateBounds" />
          </mxGeometry>
        </mxCell>
        <mxCell id="Hmh4eKxM6G-qDx6R6XAR-22" value="    state" style="shape=partialRectangle;connectable=0;fillColor=none;top=0;left=0;bottom=0;right=0;align=left;spacingLeft=6;overflow=hidden;" parent="Hmh4eKxM6G-qDx6R6XAR-20" vertex="1">
          <mxGeometry x="30" width="113.83000000000001" height="30" as="geometry">
            <mxRectangle width="113.83000000000001" height="30" as="alternateBounds" />
          </mxGeometry>
        </mxCell>
        <mxCell id="Hmh4eKxM6G-qDx6R6XAR-23" style="shape=tableRow;horizontal=0;startSize=0;swimlaneHead=0;swimlaneBody=0;fillColor=none;collapsible=0;dropTarget=0;points=[[0,0.5],[1,0.5]];portConstraint=eastwest;top=0;left=0;right=0;bottom=0;" parent="Hmh4eKxM6G-qDx6R6XAR-7" vertex="1">
          <mxGeometry y="180" width="143.83" height="30" as="geometry" />
        </mxCell>
        <mxCell id="Hmh4eKxM6G-qDx6R6XAR-24" style="shape=partialRectangle;connectable=0;fillColor=none;top=0;left=0;bottom=0;right=0;editable=1;overflow=hidden;" parent="Hmh4eKxM6G-qDx6R6XAR-23" vertex="1">
          <mxGeometry width="30" height="30" as="geometry">
            <mxRectangle width="30" height="30" as="alternateBounds" />
          </mxGeometry>
        </mxCell>
        <mxCell id="Hmh4eKxM6G-qDx6R6XAR-25" value="    zip" style="shape=partialRectangle;connectable=0;fillColor=none;top=0;left=0;bottom=0;right=0;align=left;spacingLeft=6;overflow=hidden;" parent="Hmh4eKxM6G-qDx6R6XAR-23" vertex="1">
          <mxGeometry x="30" width="113.83000000000001" height="30" as="geometry">
            <mxRectangle width="113.83000000000001" height="30" as="alternateBounds" />
          </mxGeometry>
        </mxCell>
        <mxCell id="Hmh4eKxM6G-qDx6R6XAR-26" style="shape=tableRow;horizontal=0;startSize=0;swimlaneHead=0;swimlaneBody=0;fillColor=none;collapsible=0;dropTarget=0;points=[[0,0.5],[1,0.5]];portConstraint=eastwest;top=0;left=0;right=0;bottom=0;" parent="Hmh4eKxM6G-qDx6R6XAR-7" vertex="1">
          <mxGeometry y="210" width="143.83" height="40" as="geometry" />
        </mxCell>
        <mxCell id="Hmh4eKxM6G-qDx6R6XAR-27" style="shape=partialRectangle;connectable=0;fillColor=none;top=0;left=0;bottom=0;right=0;editable=1;overflow=hidden;" parent="Hmh4eKxM6G-qDx6R6XAR-26" vertex="1">
          <mxGeometry width="30" height="40" as="geometry">
            <mxRectangle width="30" height="40" as="alternateBounds" />
          </mxGeometry>
        </mxCell>
        <mxCell id="Hmh4eKxM6G-qDx6R6XAR-28" value="shippingComany" style="shape=partialRectangle;connectable=0;fillColor=none;top=0;left=0;bottom=0;right=0;align=left;spacingLeft=6;overflow=hidden;" parent="Hmh4eKxM6G-qDx6R6XAR-26" vertex="1">
          <mxGeometry x="30" width="113.83000000000001" height="40" as="geometry">
            <mxRectangle width="113.83000000000001" height="40" as="alternateBounds" />
          </mxGeometry>
        </mxCell>
        <mxCell id="Hmh4eKxM6G-qDx6R6XAR-33" value="" style="endArrow=classic;html=1;rounded=0;" parent="1" edge="1">
          <mxGeometry width="50" height="50" relative="1" as="geometry">
            <mxPoint x="557" y="-1010" as="sourcePoint" />
            <mxPoint x="563" y="-1010" as="targetPoint" />
            <Array as="points">
              <mxPoint x="563" y="-1010" />
            </Array>
          </mxGeometry>
        </mxCell>
        <mxCell id="Hmh4eKxM6G-qDx6R6XAR-34" value="Shipped" style="edgeLabel;html=1;align=center;verticalAlign=middle;resizable=0;points=[];" parent="Hmh4eKxM6G-qDx6R6XAR-33" vertex="1" connectable="0">
          <mxGeometry x="-0.5644" y="1" relative="1" as="geometry">
            <mxPoint x="-28" y="-1" as="offset" />
          </mxGeometry>
        </mxCell>
        <mxCell id="Hmh4eKxM6G-qDx6R6XAR-81" style="edgeStyle=orthogonalEdgeStyle;rounded=0;orthogonalLoop=1;jettySize=auto;html=1;entryX=0.5;entryY=1;entryDx=0;entryDy=0;startArrow=none;startFill=0;endArrow=none;endFill=0;startSize=15;strokeWidth=1;" parent="1" target="T9H3h0vGYmCpL9f131RO-50" edge="1">
          <mxGeometry relative="1" as="geometry">
            <mxPoint x="670" y="-462" as="sourcePoint" />
            <mxPoint x="525.9750000000001" y="-461.51" as="targetPoint" />
          </mxGeometry>
        </mxCell>
        <mxCell id="Hmh4eKxM6G-qDx6R6XAR-86" value="0..*" style="edgeLabel;html=1;align=center;verticalAlign=middle;resizable=0;points=[];" parent="Hmh4eKxM6G-qDx6R6XAR-81" vertex="1" connectable="0">
          <mxGeometry x="0.8586" y="-1" relative="1" as="geometry">
            <mxPoint x="12" y="-13" as="offset" />
          </mxGeometry>
        </mxCell>
        <mxCell id="Hmh4eKxM6G-qDx6R6XAR-87" value="1..*" style="edgeLabel;html=1;align=center;verticalAlign=middle;resizable=0;points=[];" parent="Hmh4eKxM6G-qDx6R6XAR-81" vertex="1" connectable="0">
          <mxGeometry x="-0.8431" y="-1" relative="1" as="geometry">
            <mxPoint x="11" y="-8" as="offset" />
          </mxGeometry>
        </mxCell>
        <mxCell id="Hmh4eKxM6G-qDx6R6XAR-97" style="edgeStyle=orthogonalEdgeStyle;rounded=0;orthogonalLoop=1;jettySize=auto;html=1;exitX=0.5;exitY=0;exitDx=0;exitDy=0;startArrow=none;startFill=0;endArrow=none;endFill=0;startSize=15;strokeWidth=1;dashed=1;" parent="1" source="Hmh4eKxM6G-qDx6R6XAR-93" edge="1">
          <mxGeometry relative="1" as="geometry">
            <mxPoint x="470" y="-550" as="targetPoint" />
            <Array as="points">
              <mxPoint x="370" y="-550" />
            </Array>
          </mxGeometry>
        </mxCell>
        <mxCell id="Hmh4eKxM6G-qDx6R6XAR-93" value="Returns" style="swimlane;fontStyle=1;childLayout=stackLayout;horizontal=1;startSize=20;horizontalStack=0;resizeParent=1;resizeParentMax=0;resizeLast=0;collapsible=1;marginBottom=0;" parent="1" vertex="1">
          <mxGeometry x="320" y="-530" width="80" height="140" as="geometry" />
        </mxCell>
        <mxCell id="Hmh4eKxM6G-qDx6R6XAR-96" value="quantity" style="text;strokeColor=none;fillColor=none;align=left;verticalAlign=middle;spacingLeft=4;spacingRight=4;overflow=hidden;points=[[0,0.5],[1,0.5]];portConstraint=eastwest;rotatable=0;" parent="Hmh4eKxM6G-qDx6R6XAR-93" vertex="1">
          <mxGeometry y="20" width="80" height="30" as="geometry" />
        </mxCell>
        <mxCell id="MBpQapI2-sTePa0hEt9v-1" value="returnDate" style="text;strokeColor=none;fillColor=none;align=left;verticalAlign=middle;spacingLeft=4;spacingRight=4;overflow=hidden;points=[[0,0.5],[1,0.5]];portConstraint=eastwest;rotatable=0;" parent="Hmh4eKxM6G-qDx6R6XAR-93" vertex="1">
          <mxGeometry y="50" width="80" height="30" as="geometry" />
        </mxCell>
        <mxCell id="MBpQapI2-sTePa0hEt9v-2" value="/itemsCount" style="text;strokeColor=none;fillColor=none;align=left;verticalAlign=middle;spacingLeft=4;spacingRight=4;overflow=hidden;points=[[0,0.5],[1,0.5]];portConstraint=eastwest;rotatable=0;" parent="Hmh4eKxM6G-qDx6R6XAR-93" vertex="1">
          <mxGeometry y="80" width="80" height="30" as="geometry" />
        </mxCell>
        <mxCell id="MBpQapI2-sTePa0hEt9v-3" value="/totalRefund" style="text;strokeColor=none;fillColor=none;align=left;verticalAlign=middle;spacingLeft=4;spacingRight=4;overflow=hidden;points=[[0,0.5],[1,0.5]];portConstraint=eastwest;rotatable=0;" parent="Hmh4eKxM6G-qDx6R6XAR-93" vertex="1">
          <mxGeometry y="110" width="80" height="30" as="geometry" />
        </mxCell>
        <mxCell id="MBpQapI2-sTePa0hEt9v-9" style="edgeStyle=orthogonalEdgeStyle;rounded=0;orthogonalLoop=1;jettySize=auto;html=1;exitX=0.5;exitY=0;exitDx=0;exitDy=0;startArrow=none;startFill=0;endArrow=none;endFill=0;startSize=15;strokeWidth=1;dashed=1;" parent="1" source="MBpQapI2-sTePa0hEt9v-10" edge="1">
          <mxGeometry relative="1" as="geometry">
            <mxPoint x="240" y="-270" as="targetPoint" />
            <Array as="points">
              <mxPoint x="240" y="-240" />
            </Array>
          </mxGeometry>
        </mxCell>
        <mxCell id="MBpQapI2-sTePa0hEt9v-10" value="Cart" style="swimlane;fontStyle=1;childLayout=stackLayout;horizontal=1;startSize=20;horizontalStack=0;resizeParent=1;resizeParentMax=0;resizeLast=0;collapsible=1;marginBottom=0;" parent="1" vertex="1">
          <mxGeometry x="200" y="-220" width="80" height="170" as="geometry" />
        </mxCell>
        <mxCell id="gwt2AjKTV2ZLyRHPjYrr-1" value="quantity" style="text;strokeColor=none;fillColor=none;align=left;verticalAlign=middle;spacingLeft=4;spacingRight=4;overflow=hidden;points=[[0,0.5],[1,0.5]];portConstraint=eastwest;rotatable=0;" parent="MBpQapI2-sTePa0hEt9v-10" vertex="1">
          <mxGeometry y="20" width="80" height="30" as="geometry" />
        </mxCell>
        <mxCell id="MBpQapI2-sTePa0hEt9v-11" value="/cartSubtotal" style="text;strokeColor=none;fillColor=none;align=left;verticalAlign=middle;spacingLeft=4;spacingRight=4;overflow=hidden;points=[[0,0.5],[1,0.5]];portConstraint=eastwest;rotatable=0;" parent="MBpQapI2-sTePa0hEt9v-10" vertex="1">
          <mxGeometry y="50" width="80" height="30" as="geometry" />
        </mxCell>
        <mxCell id="MBpQapI2-sTePa0hEt9v-12" value="/cartTax" style="text;strokeColor=none;fillColor=none;align=left;verticalAlign=middle;spacingLeft=4;spacingRight=4;overflow=hidden;points=[[0,0.5],[1,0.5]];portConstraint=eastwest;rotatable=0;" parent="MBpQapI2-sTePa0hEt9v-10" vertex="1">
          <mxGeometry y="80" width="80" height="30" as="geometry" />
        </mxCell>
        <mxCell id="MBpQapI2-sTePa0hEt9v-13" value="/itemsCount" style="text;strokeColor=none;fillColor=none;align=left;verticalAlign=middle;spacingLeft=4;spacingRight=4;overflow=hidden;points=[[0,0.5],[1,0.5]];portConstraint=eastwest;rotatable=0;" parent="MBpQapI2-sTePa0hEt9v-10" vertex="1">
          <mxGeometry y="110" width="80" height="30" as="geometry" />
        </mxCell>
        <mxCell id="MBpQapI2-sTePa0hEt9v-14" value="/cartTotal" style="text;strokeColor=none;fillColor=none;align=left;verticalAlign=middle;spacingLeft=4;spacingRight=4;overflow=hidden;points=[[0,0.5],[1,0.5]];portConstraint=eastwest;rotatable=0;" parent="MBpQapI2-sTePa0hEt9v-10" vertex="1">
          <mxGeometry y="140" width="80" height="30" as="geometry" />
        </mxCell>
        <mxCell id="MBpQapI2-sTePa0hEt9v-16" value="" style="endArrow=classic;html=1;rounded=0;" parent="1" edge="1">
          <mxGeometry width="50" height="50" relative="1" as="geometry">
            <mxPoint x="535" y="-470" as="sourcePoint" />
            <mxPoint x="542" y="-470" as="targetPoint" />
          </mxGeometry>
        </mxCell>
        <mxCell id="MBpQapI2-sTePa0hEt9v-17" value="Returns" style="edgeLabel;html=1;align=center;verticalAlign=middle;resizable=0;points=[];" parent="MBpQapI2-sTePa0hEt9v-16" vertex="1" connectable="0">
          <mxGeometry x="-0.5644" y="1" relative="1" as="geometry">
            <mxPoint x="-30" as="offset" />
          </mxGeometry>
        </mxCell>
      </root>
    </mxGraphModel>
  </diagram>
</mxfile>
